<?xml version="1.0" encoding="UTF-8"?>
<!DOCTYPE svg PUBLIC "-//W3C//DTD SVG 1.1//EN" "http://www.w3.org/Graphics/SVG/1.1/DTD/svg11.dtd">
<!-- Creator: CorelDRAW 2020 (64-Bit) -->
<svg xmlns="http://www.w3.org/2000/svg" xml:space="preserve" width="22.1366mm" height="20.9601mm" version="1.1" style="shape-rendering:geometricPrecision; text-rendering:geometricPrecision; image-rendering:optimizeQuality; fill-rule:evenodd; clip-rule:evenodd"
viewBox="0 0 44.98 42.59"
 xmlns:xlink="http://www.w3.org/1999/xlink"
 xmlns:xodm="http://www.corel.com/coreldraw/odm/2003">
 <defs>
  <style type="text/css">
   <![CDATA[
    .fil0 {fill:white}
   ]]>
  </style>
 </defs>
 <g id="Layer_x0020_1">
  <metadata id="CorelCorpID_0Corel-Layer"/>
  <g id="_2377568344160">
   <path class="fil0" d="M39.9 5.02l0 0 0 0c0.24,0.24 0.47,0.48 0.7,0.73l0 0 0 0c0.29,0.33 0.57,0.66 0.84,1.01l0 0 0 0c0.12,0.16 0.25,0.32 0.36,0.49l0 0 0 0c0.17,0.24 0.33,0.48 0.49,0.73l0 0 0 0c0.01,0.02 0.03,0.04 0.04,0.06l0 0 0 0c0.05,0.08 0.11,0.17 0.16,0.25l0 0 0 0c0.04,0.07 0.08,0.14 0.13,0.21l0 0 0 0c0.1,0.17 0.2,0.35 0.3,0.53l0 0 0 0c0.02,0.04 0.05,0.09 0.07,0.13l0 0 0 0c0.02,0.04 0.05,0.09 0.07,0.13l0 0 0 0c0.08,0.16 0.17,0.32 0.24,0.49l0 0 0 0c0.06,0.12 0.11,0.24 0.17,0.36l0 0 0 0c0.06,0.13 0.11,0.25 0.17,0.38l0 0 0 0c0.07,0.16 0.13,0.33 0.2,0.49l0 0 0 0c0.05,0.13 0.1,0.27 0.15,0.4l0 0 0 0c0.03,0.1 0.07,0.19 0.1,0.29l0 0 0 0c0.07,0.2 0.13,0.4 0.19,0.6l0 0 0 0c0.01,0.03 0.02,0.05 0.02,0.08l0 0 0 0c0.01,0.03 0.02,0.05 0.02,0.08l0 0c0.15,0.53 0.28,1.07 0.38,1.62l0 0 0 0c0.05,0.25 0.08,0.49 0.12,0.74l0 0 0 0c0.01,0.08 0.02,0.16 0.03,0.24l0 0 0 0c0.04,0.3 0.07,0.6 0.09,0.9l0 0 0 0c0.02,0.3 0.03,0.6 0.04,0.9l0 0.01 0 0c0,0.1 0,0.2 0,0.3 0,0.1 -0,0.2 -0,0.3l-0 0 0 0.01c-0,0.1 -0,0.2 -0.01,0.29l-0 0 0 0c-0,0.07 -0,0.14 -0.01,0.2l-0 0 0 0c-0,0.09 -0.01,0.18 -0.02,0.27l-0 0 0 0c-0.01,0.08 -0.01,0.16 -0.02,0.24l0 0 0 0c-0,0.03 -0.01,0.06 -0.01,0.09l0 0 0 0c-0.01,0.14 -0.02,0.28 -0.04,0.42l0 0c-0.01,0.07 -0.02,0.14 -0.02,0.21l0 0 0 0c-0.02,0.16 -0.04,0.32 -0.06,0.47l0 0 0 0c-0.03,0.22 -0.07,0.44 -0.11,0.66l-0 0 0 0c-0.01,0.07 -0.03,0.14 -0.04,0.2l0 0 0 0c-0.01,0.06 -0.03,0.13 -0.04,0.19l0 0 0 0c-0.03,0.14 -0.06,0.28 -0.09,0.42l-0 0 0 0c-0.06,0.25 -0.13,0.5 -0.2,0.75l-0 0 0 0c-0.05,0.16 -0.09,0.31 -0.14,0.47l-0 0 0 0c-0.07,0.22 -0.14,0.43 -0.22,0.65l-0 0 0 0c-0.02,0.06 -0.05,0.13 -0.07,0.19l-0 0 0 0c-0.07,0.18 -0.14,0.36 -0.21,0.54l0 0 0 0c-0.07,0.16 -0.13,0.32 -0.21,0.47l0 0 0 0c-0.02,0.04 -0.04,0.08 -0.06,0.12l0 0 0 0c-0.04,0.08 -0.08,0.17 -0.12,0.25l-0 0 0 0c-0.14,0.29 -0.29,0.57 -0.44,0.85l-0 0 0 0c-0.25,0.45 -0.51,0.88 -0.8,1.3l0 0 0 0c-0.05,0.07 -0.09,0.14 -0.14,0.21l-0 0 0 0c-0.13,0.18 -0.26,0.37 -0.4,0.54l0 0 0 0c-0.1,0.13 -0.2,0.26 -0.31,0.4l0 0 0 0c-0.25,0.31 -0.51,0.61 -0.77,0.9l0 0 0 0c-0.08,0.08 -0.15,0.16 -0.23,0.24l0 0 0 0c-0.18,0.18 -0.35,0.36 -0.54,0.54l-0 0 0 0c-0.08,0.08 -0.16,0.15 -0.24,0.23l0 0 0 0c-0.29,0.27 -0.59,0.53 -0.9,0.77l-0 0 0 0c-0.37,0.3 -0.75,0.58 -1.15,0.85l-0 0 0 0c-0.24,0.16 -0.49,0.32 -0.74,0.47l0 0 0 0c-0.07,0.04 -0.14,0.08 -0.21,0.13l-0 0 0 0c-0.05,0.03 -0.1,0.06 -0.15,0.09 -0.65,0.37 -1.33,0.7 -2.03,0.99 -0.17,0.07 -0.34,0.13 -0.51,0.2l-0 0 0 0c-0.65,0.24 -1.33,0.45 -2.02,0.61l0 0c-0.14,0.03 -0.28,0.07 -0.43,0.09l-0 0 0 0c-0.16,0.03 -0.33,0.07 -0.49,0.09l-0 0 0 0c-0.22,0.04 -0.44,0.07 -0.66,0.1l0 0 0 0c-0.08,0.01 -0.16,0.02 -0.24,0.03l-0 0 0 0c-0.14,0.02 -0.28,0.03 -0.43,0.05l-0 0 0 0c-0.45,0.04 -0.9,0.07 -1.35,0.08l-0 0c-0.11,0 -0.22,0 -0.33,0l-12.41 0 0.85 -2.7 0 0 0 0 0.39 -1.25 0 0 1.24 -3.97 0 0 0 0 0.08 -0.26 0.37 -1.17 0 0 0 -0 0.25 -0.78 0.21 -0.66 0 0 0 -0 0.25 -0.78 0 0 0 0 0.45 -1.44 0 0 0 0 0.45 -1.44 0 0 0 0 0.25 -0.78 0.21 -0.66 0 0 0 -0 0.25 -0.78 0 0 0 0 0.21 -0.66 0 0 0 -0 0.2 -0.63 0.05 -0.15 0 0 0 0 0.45 -1.44 0 0 0 -0 0.25 -0.78 0 0 0 0 0.45 -1.44 0 0 0 0 0.13 -0.43 5.45 0c0.05,0 0.11,0 0.16,0l0 0 0.09 0c0.04,0 0.07,0 0.11,0.01l0 0 0.01 0c0.02,0 0.05,0 0.07,0.01l0 0 0.02 0c0.02,0 0.03,0 0.05,0.01l0 0 0.02 0c0.01,0 0.03,0 0.04,0l0 0 0.03 0c0.01,0 0.02,0 0.04,0l0 0 0.02 0c0.02,0 0.03,0 0.05,0.01l0 0 0.01 0c0.03,0 0.06,0.01 0.09,0.02l0 0 0.01 0c0.01,0 0.02,0 0.03,0.01l0 0 0.01 0 0.03 0.01 0 0 0.01 0 0.03 0.01 0 0 0.02 0 0.02 0 0 0 0.01 0 0.02 0.01 0 0 0.01 0 0.03 0.01 0 0 0.01 0 0.03 0.01 0 0 0 0c0.04,0.01 0.08,0.02 0.12,0.03l0 0 0.01 0 0.02 0.01 0 0 0.01 0 0.02 0 0 0 0.01 0 0.02 0.01 0 0 0.01 0 0.02 0 0 0 0.01 0 0.02 0.01 0 0 0.01 0 0.02 0 0 0 0.01 0 0.02 0.01 0 0 0.01 0c0.02,0.01 0.03,0.01 0.05,0.02l0 0 0 0c0.02,0.01 0.05,0.01 0.07,0.02l0 0 0 0 0.02 0.01 0 0 0 0 0.02 0.01 0 0 0 0 0.02 0.01 0 0 0 0 0.01 0.01 0 0 0.01 0 0.02 0.01 0 0 0.01 0 0.02 0.01 0 0 0 0 0.02 0.01 0 0 0 0 0.01 0 0 0 0.01 0 0.02 0.01 0 0 0.01 0 0.02 0.01 0 0 0 0 0.01 0.01 0 0 0.01 0 0.02 0.01 0 0 0 0c0.03,0.01 0.05,0.02 0.08,0.03l0 0 0 0c0.02,0.01 0.04,0.02 0.05,0.02l0 0 0 0 0.01 0.01 0 0 0 0 0.01 0 0 0 0.01 0 0.02 0.01 0 0 0 0 0.01 0.01 0 0 0 0 0.01 0.01 0 0 0 0 0.01 0.01 0 0 0.01 0 0.01 0 0 0 0.01 0 0.02 0.01 0 0 0 0 0.01 0.01 0 0 0 0 0.01 0.01 0 0 0 0 0.01 0.01 0 0 0 0 0.01 0.01 0 0 0 0c0.04,0.02 0.07,0.04 0.11,0.05l0 0 0 0 0.01 0.01 0 0 0 0 0.01 0.01 0 0 0 0 0.01 0.01 0 0 0 0 0.01 0.01 0 0 0 0 0.02 0.01 0 0 0.01 0 0.01 0.01 0 0 0.01 0 0.01 0.01 0 0 0 0 0.01 0.01 0 0 0 0 0.01 0.01 0 0 0 0 0.02 0.01 0 0 0 0 0.01 0.01 0 0 0 0 0.01 0.01 0 0 0 0c0.01,0.01 0.03,0.01 0.04,0.02l0 0 0 0c0.03,0.02 0.05,0.03 0.08,0.05l0 0 0 0 0.02 0.01 0 0 0 0 0.01 0.01 0 0 0 0 0.02 0.01 0 0 0 0 0.02 0.01 0 0 0 0 0.01 0.01 0 0 0 0 0.01 0.01 0 0 0 0 0.01 0.01 0 0 0 0 0.01 0 0 0 0 0 0.01 0.01 0 0 0 0 0.01 0 0 0 0 0 0.01 0.01 0 0 0 0 0.02 0.02 0 0 0 0 0.02 0.02 0 0 0 0c0.01,0.01 0.03,0.02 0.04,0.03l-2.14 6.83 -1.11 3.53 0 0 0 0 -0.45 1.44 0 0 0 0 -0.41 1.31 1.26 0c4.94,0 9.01,-4.07 9.01,-9.01 0,-4.94 -4.07,-9.01 -9.01,-9.01l-8.43 0 -0.3 0.95 0 0 0 0 -0.45 1.44 0 0 0 0 -0.45 1.44 -0 0 0 0 -1.15 3.66 0 0 -0.45 1.44 0 0 0 0 -0.45 1.44 0 0 0 0 -0.45 1.44 0 0 0 0 -0.45 1.44 0 0 0 0 -0.09 0.27 -0.36 1.16 0 0 0 0 -0.7 2.22 0 0 0 0 -0.35 1.12 -0.8 2.54 0 0 0 0 -0.7 2.22 0 0 -0.45 1.44 0 0 0 0 -0.25 0.78 0 0 0 0 -0.38 1.21 -8.58 0 10.77 -34.39 14.45 0c4.71,0 9,1.92 12.12,5.02z"/>
   <path class="fil0" d="M41.44 6.77l0 0 0 0c0.12,0.16 0.25,0.32 0.36,0.49l0 0 0 0c0.17,0.24 0.33,0.48 0.49,0.73l0 0 0 0c0.01,0.02 0.03,0.04 0.04,0.06l0 0 0 0c0.1,0.15 0.19,0.31 0.28,0.47l0 0 0 0c0.1,0.17 0.2,0.35 0.3,0.53l0 0 0 0c0.02,0.04 0.05,0.09 0.07,0.13l0 0 0 0c0.02,0.04 0.05,0.09 0.07,0.13l0 0 0 0c0.08,0.16 0.17,0.32 0.24,0.49l0 0 0 0c0.04,0.08 0.08,0.17 0.12,0.25l0 0 0 0c0.02,0.03 0.03,0.07 0.05,0.1l0 0 0 0c0.06,0.13 0.11,0.25 0.17,0.38l0 0 0 0c0.07,0.16 0.13,0.33 0.2,0.49l0 0 0 0c0.05,0.13 0.1,0.27 0.15,0.4l0 0 0 0c0.03,0.1 0.07,0.19 0.1,0.29l0 0 0 0c0.04,0.12 0.08,0.24 0.12,0.36l0 0 0 0c0.02,0.08 0.05,0.16 0.07,0.24l0 0 0 0c0.01,0.03 0.02,0.05 0.02,0.08l0 0 0 0c0.16,0.56 0.3,1.12 0.4,1.7l0 0 0 0c0.05,0.25 0.08,0.49 0.12,0.74l0 0 0 0c0.01,0.08 0.02,0.16 0.03,0.24l0 0 0 0c0.04,0.3 0.07,0.6 0.09,0.9l0 0 0 0c0.02,0.3 0.03,0.6 0.04,0.9l0 0.01 0 0c0,0.1 0,0.2 0,0.3 0,0.08 -0,0.16 -0,0.25l-0 0 0 0.12c-0,0.08 -0,0.16 -0.01,0.24l-0 0 0 0.03c-0,0.05 -0,0.1 -0.01,0.14l-0 0 0 0.04c-0,0.04 -0,0.08 -0.01,0.12l-0 0 0 0.03c-0,0.04 -0,0.08 -0.01,0.12l-0 0 0 0.01c-0,0.03 -0,0.06 -0.01,0.1l-0 0 0 0.02c-0,0.03 -0,0.05 -0.01,0.08l-0 0 0 0.02c-0,0.03 -0,0.05 -0.01,0.08l-0 0 0 0.02c-0,0.03 -0,0.06 -0.01,0.08l-0 0 0 0.01c-0,0.03 -0.01,0.06 -0.01,0.09l0 0 0 0c-0,0.02 -0,0.05 -0.01,0.07l-0 0 0 0.01c-0,0.02 -0,0.05 -0.01,0.07l-0 0 0 0.01 -0.01 0.06 -0 0 0 0.01 -0.01 0.06 -0 0 0 0.02 -0.01 0.06 -0 0 0 0.01 -0.01 0.07 0 0 0 0c-0.01,0.04 -0.01,0.08 -0.02,0.13l-0 0 0 0 -0.01 0.05 -0 0 0 0.01 -0.01 0.05 -0 0 0 0.01 -0.01 0.04 -0 0 0 0.01 -0.01 0.05 -0 0 0 0.01 -0.01 0.05 -0 0 0 0.01 -0.01 0.05 -0 0 0 0.01 -0.01 0.05 -0 0 0 0c-0.01,0.03 -0.01,0.07 -0.02,0.1l-0 0 0 0 -0.01 0.05 -0 0 0 0 -0.01 0.04 -0 0 0 0.01 -0.01 0.04 -0 0 0 0.01 -0.01 0.04 -0 0 0 0.01 -0.01 0.04 -0 0 0 0 -0.01 0.04 -0 0 0 0.01 -0.01 0.04 -0 0 0 0.01 -0.01 0.04 -0 0 0 0c-0.01,0.06 -0.02,0.11 -0.03,0.17l0 0 0 0 -0.01 0.04 -0 0 0 0 -0.01 0.04 -0 0 0 0 -0.01 0.04 -0 0 0 0 -0.01 0.04 -0 0 0 0 -0.01 0.04 -0 0 0 0 -0.01 0.04 -0 0 0 0 -0.01 0.04 0 0 0 0 -0.01 0.03 -0 0 0 0.01 -0.01 0.03 -0 0 0 0 -0.01 0.04 -0 0 0 0c-0.01,0.05 -0.02,0.09 -0.03,0.14l-0 0 0 0 -0.01 0.03 -0 0 0 0.01 -0.01 0.03 -0 0 0 0 -0.01 0.03 -0 0 0 0 -0.01 0.03 -0 0 0 0.01 -0.01 0.03 -0 0 0 0 -0.01 0.03 -0 0 0 0 -0.01 0.03 -0 0 0 0 -0.01 0.03 -0 0 0 0.01c-0.01,0.04 -0.02,0.08 -0.03,0.11 0.51,-8.88 -5.05,-13.26 -16.69,-13.14l-8.43 0 -0.05 0.16 0 0 0 0 -1.6 5.1 0 0 -0.45 1.44 0 0 0 0 -0.45 1.44 0 0 0 0 -1.15 3.66 0 0 -0.45 1.44 0 0 0 0 -0.09 0.27 -0.36 1.16 0 0 0 0 -0.7 2.22 0 0 0 0 -0.35 1.12 -0.8 2.54 0 0 0 0 -0.7 2.22 0 0 -0.45 1.44 0 0 0 0 -0.25 0.78 0 0 0 0 -0.38 1.21 -8.58 0 10.77 -34.39 14.45 0c5.08,0 9.66,2.23 12.81,5.76 0.29,0.33 0.57,0.66 0.84,1.01z"/>
   <path class="fil0" d="M16.47 6.64l0 0 0 0 -0.45 1.44 0 0 0 0 -0.45 1.44 0 0 0 0 -0.45 1.44 -0 0 0 0 -0.24 0.78 0 0 0 0 -0.45 1.44 0 0 0 0 -0.45 1.44 0 0 0 0 -0.45 1.44 0 0 0 0 -0.45 1.44 0 0 0 0 -0.7 2.22 0 0 0 0 -0.45 1.44 -0 0 0 0 -0.45 1.44 0 0 0 0 -0.45 1.44 0 0 0 0 -0.25 0.78 0 0 -0.45 1.44 0 0 -0.45 1.44 0 0 0 0 -0.45 1.44 0 0 0 0 -0.45 1.44 0 0 0 0 -0.7 2.22 0 0 0 0 -0.3 0.94 -4.53 0 10.36 -33.07 13.97 0c8.12,0 14.92,5.94 16.29,13.68 -2.45,-5.34 -7.86,-9.07 -14.09,-9.07l-13.09 0 -0.43 1.37z"/>
   <path class="fil0" d="M19.77 20.39l0.14 -0.46 0 0 0 0 0.24 -0.78 0.21 -0.66 0 0 0 0 0.25 -0.78 0 0 0 0 0.21 -0.66 0 0 0 -0 0.2 -0.63 0.05 -0.15 0 0 0 0 0.45 -1.44 0 0 0 -0 0.24 -0.78 0 0 0 0 0.45 -1.44 0 0 0 -0 0.13 -0.42 5.45 0c0.05,0 0.11,0 0.16,0l0 0 0.09 0c0.04,0 0.07,0 0.11,0.01l0 0 0.01 0c0.02,0 0.05,0 0.07,0.01l0 0 0.02 0c0.02,0 0.03,0 0.05,0.01l0 0 0.02 0c0.01,0 0.03,0 0.04,0l0 0 0.03 0c0.01,0 0.02,0 0.04,0l0 0 0.02 0c0.02,0 0.03,0 0.05,0.01l0 0 0.01 0c0.03,0 0.06,0.01 0.09,0.02l0 0 0.01 0c0.01,0 0.02,0 0.03,0.01l0 0 0.01 0 0.03 0.01 0 0 0.01 0 0.03 0.01 0 0 0.01 0 0.02 0.01 0 0 0.01 0 0.02 0.01 0 0 0.01 0 0.03 0.01 0 0 0.01 0 0.03 0.01 0 0 0 0c0.03,0.01 0.07,0.02 0.1,0.02l0 0 0.02 0.01 0 0 0.01 0 0.02 0.01 0 0 0.01 0 0.02 0 0 0 0.01 0 0.02 0.01 0 0 0.01 0 0.02 0 0 0 0.01 0 0.02 0.01 0 0 0.01 0 0.02 0 0 0 0.01 0 0.02 0.01 0 0 0.01 0 0.03 0.01 0.02 0.01 0 0 0 0c0.02,0.01 0.05,0.01 0.07,0.02l0 0 0 0 0.02 0.01 0 0 0 0 0.02 0.01 0 0 0 0 0.02 0.01 0 0 0 0 0.01 0 0 0 0.01 0 0.02 0.01 0 0 0.01 0 0.02 0.01 0 0 0 0 0.02 0.01 0 0 0 0 0.01 0 0 0 0.01 0 0.02 0.01 0 0 0.01 0 0.02 0.01 0 0 0 0 0.01 0.01 0 0 0.01 0 0.02 0.01 0 0 0 0c0.03,0.01 0.05,0.02 0.08,0.03l0 0 0 0c0.02,0.01 0.04,0.02 0.05,0.02l0 0 0 0 0.01 0.01 0 0 0 0 0.01 0.01 0 0 0.01 0 0.02 0.01 0 0 0 0 0.01 0.01 0 0 0 0 0.01 0.01 0 0 0 0 0.01 0.01 0 0 0.01 0 0.01 0 0 0 0.01 0 0.02 0.01 0 0 0 0 0.02 0.01 0 0 0 0 0.01 0.01 0 0 0 0 0.01 0.01 0 0 0 0 0.01 0.01 0 0 0 0c0.04,0.02 0.08,0.04 0.12,0.06l0 0 0 0 0.01 0.01 0 0 0 0 0.01 0.01 0 0 0 0 0.01 0.01 0 0 0 0 0.02 0.01 0 0 0.01 0 0.01 0.01 0 0 0.01 0 0.01 0.01 0 0 0 0 0.01 0.01 0 0 0 0 0.01 0.01 0 0 0 0 0.02 0.01 0 0 0.01 0 0.01 0.01 0 0 0 0 0.01 0.01 0 0 0 0c0.01,0.01 0.03,0.01 0.04,0.02l0 0 0 0c0.02,0.01 0.04,0.02 0.05,0.03l0.02 0.01 0 0 0 0 0.02 0.01 0 0 0 0 0.01 0.01 0 0 0 0 0.02 0.01 0 0 0 0 0.02 0.01 0 0 0 0 0.01 0.01 0 0 0 0 0.01 0 0 0 0 0 0.01 0.01 0 0 0 0 0.01 0 0 0 0 0 0.01 0.01 0 0 0 0 0.01 0 0 0 0 0 0.01 0.01 0 0 0 0 0.02 0.02 0 0 0 0 0.02 0.02 0 0 0 0c0.01,0.01 0.03,0.02 0.04,0.03l-2.14 6.83 -1.11 3.53 0 0 0 0 -0.45 1.44 0 0 0 0 -0.41 1.31 1.26 0 0 0c4.94,0 9.01,-4.07 9.01,-9.01 0,-4.94 -4.07,-9.01 -9.01,-9.01 0.15,-0 0.3,-0 0.44,-0l0.16 0c0.21,0 0.43,0 0.64,0.01l0 0 0.04 0c0.08,0 0.16,0 0.24,0.01l0 0 0.12 0c0.06,0 0.12,0 0.18,0.01l0 0 0.06 0c0.13,0 0.26,0.01 0.39,0.02l0 0 0.02 0c0.04,0 0.09,0 0.13,0.01l0 0 0.03 0c0.04,0 0.07,0 0.11,0.01l0 0 0.06 0c0.03,0 0.06,0 0.08,0.01l0 0 0.05 0c0.03,0 0.07,0 0.1,0.01l0 0 0.03 0c0.04,0 0.08,0 0.12,0.01l0 0 0.01 0c0.08,0 0.15,0.01 0.22,0.02l0 0 0.01 0c0.03,0 0.06,0 0.09,0.01l0 0 0.01 0 0.08 0.01 0 0 0.02 0c0.02,0 0.05,0 0.07,0.01l0 0 0.03 0c0.02,0 0.04,0 0.06,0l0 0 0.03 0c0.02,0 0.04,0 0.06,0.01l0 0 0.03 0c0.02,0 0.05,0 0.07,0.01l0 0 0.02 0 0.08 0.01 0 0 0.01 0c0.03,0 0.06,0.01 0.09,0.01l0 0 0 0c0.03,0 0.06,0.01 0.09,0.01l0 0 0 0c0.05,0 0.09,0.01 0.14,0.01l0 0 0.01 0c0.02,0 0.04,0 0.06,0.01l0 0 0.01 0 0.06 0.01 0 0 0.01 0 0.05 0.01 0 0 0.02 0c0.02,0 0.03,0 0.05,0.01l0 0 0.03 0c0.01,0 0.03,0 0.04,0l0 0 0.03 0c0.01,0 0.03,0 0.04,0l0 0 0.03 0c0.02,0 0.03,0 0.05,0.01l0 0 0.02 0c0.02,0 0.03,0 0.05,0.01l0 0 0.01 0 0.05 0.01 0 0 0.01 0c0.02,0 0.04,0 0.06,0.01l0 0 0.01 0c0.08,0.01 0.15,0.02 0.23,0.03l0 0 0.01 0c0.02,0 0.03,0 0.05,0.01l0 0 0.01 0 0.05 0.01 0 0 0.01 0 0.04 0.01 0 0 0.02 0c0.01,0 0.03,0 0.04,0.01l0 0 0.02 0c0.01,0 0.02,0 0.04,0.01l0 0 0.02 0c0.01,0 0.02,0 0.04,0.01l0 0 0.02 0c0.01,0 0.02,0 0.03,0l0 0 0.02 0c0.01,0 0.02,0 0.03,0.01l0 0 0.02 0c0.01,0 0.03,0 0.04,0.01l0 0 0.01 0 0.04 0.01 0 0 0.01 0 0.04 0.01 0 0 0.01 0c0.02,0 0.03,0.01 0.05,0.01l0 0 0 0c0.02,0 0.03,0 0.05,0.01l0 0 0 0c0.06,0.01 0.12,0.02 0.19,0.03l0 0 0 0c0.01,0 0.02,0 0.04,0.01l0 0 0.01 0 0.04 0.01 0 0 0 0 0.03 0.01 0 0 0.01 0 0.04 0.01 0 0 0.01 0 0.03 0.01 0 0 0.01 0 0.03 0 0 0 0.02 0c0.01,0 0.02,0 0.03,0.01l0 0 0.02 0 0.02 0 0 0 0.02 0c0.01,0 0.01,0 0.02,0l0 0 0.02 0c0.01,0 0.02,0 0.03,0.01l0 0 0.01 0c0.01,0 0.02,0 0.03,0.01l0 0 0.01 0 0.04 0.01 0 0 0.01 0 0.03 0.01 0 0 0.01 0 0.03 0.01 0 0 0.01 0c0.03,0.01 0.05,0.01 0.08,0.02l0 0 0 0c0.01,0 0.03,0.01 0.04,0.01l0 0 0 0c0.05,0.01 0.1,0.02 0.15,0.03l0 0 0 0 0.03 0.01 0 0 0.01 0 0.03 0.01 0 0 0 0 0.03 0.01 0 0 0.01 0 0.03 0.01 0 0 0.01 0 0.03 0.01 0 0 0.01 0 0.03 0.01 0 0 0.01 0c0.01,0 0.02,0 0.02,0.01l0 0 0.01 0c0.01,0 0.01,0 0.02,0l0 0 0.02 0 0.02 0 0 0 0.01 0c0.01,0 0.01,0 0.02,0l0 0 0.01 0c0.01,0 0.02,0 0.03,0.01l0 0 0.01 0 0.02 0.01 0 0 0.01 0 0.02 0.01 0 0 0.01 0 0.03 0.01 0 0 0.01 0 0.03 0.01 0 0 0.01 0 0.03 0.01 0 0 0 0c0.01,0 0.02,0 0.03,0.01l0 0 0 0c0.03,0.01 0.07,0.02 0.1,0.02l0 0 0 0 0.03 0.01 0 0 0 0c0.04,0.01 0.08,0.02 0.12,0.03l0 0 0 0 0.03 0.01 0 0 0 0 0.03 0.01 0 0 0 0 0.02 0.01 0 0 0.01 0 0.02 0.01 0 0 0.01 0 0.02 0.01 0 0 0.01 0c0.01,0 0.02,0 0.02,0.01l0 0 0.01 0 0.02 0 0 0 0.01 0c0.01,0 0.01,0 0.02,0l0 0 0.01 0 0.02 0.01 0 0 0.01 0 0.01 0 0 0 0.01 0 0.02 0.01 0 0 0.01 0c0.01,0 0.01,0 0.02,0.01l0 0 0.01 0 0.02 0 0 0 0.01 0 0.02 0.01 0 0 0.01 0 0.02 0.01 0 0 0 0 0.03 0.01 0 0 0 0 0.02 0.01 0 0 0 0 0.03 0.01 0 0 0 0c0.02,0.01 0.04,0.01 0.05,0.02l0 0 0 0c0.04,0.01 0.07,0.02 0.11,0.03l0 0 0 0c0.01,0 0.02,0 0.02,0.01l0 0 0 0c0.03,0.01 0.05,0.02 0.08,0.02l0 0 0 0 0.02 0.01 0 0 0 0 0.02 0.01 0 0 0.01 0 0.02 0.01 0 0 0.01 0 0.02 0.01 0 0 0 0 0.02 0.01 0 0 0 0 0.02 0.01 0 0 0.01 0 0.02 0.01 0 0 0.01 0 0.02 0 0 0 0.01 0 0.01 0 0 0 0.01 0 0.01 0 0 0 0.01 0c0.01,0 0.01,0 0.02,0.01l0 0 0.01 0c0.01,0 0.01,0 0.02,0.01l0 0 0.01 0 0.02 0.01 0 0 0.01 0 0.02 0.01 0 0 0.01 0 0.02 0.01 0 0 0.01 0 0.02 0.01 0 0 0.01 0 0.02 0.01 0 0 0.01 0c0.04,0.01 0.08,0.03 0.12,0.04l0 0 0 0c0.01,0 0.02,0.01 0.02,0.01l0 0 0 0c0.01,0 0.02,0.01 0.02,0.01l0 0 0 0 0.02 0.01 0 0 0 0c0.03,0.01 0.06,0.02 0.09,0.03l0 0 0 0 0.02 0.01 0 0 0 0c0.01,0 0.03,0.01 0.04,0.01l0 0 0.01 0 0.02 0.01 0 0 0 0 0.02 0.01 0 0 0 0 0.01 0 0 0 0.01 0 0.02 0.01 0 0 0.01 0 0.02 0.01 0 0 0.01 0 0.02 0.01 0 0 0 0 0.01 0 0 0 0.01 0c0,0 0.01,0 0.01,0l0 0 0.01 0c0.01,0 0.01,0 0.02,0.01l0 0 0.01 0 0.01 0 0 0 0.01 0 0.01 0 0 0 0.01 0c0.01,0 0.01,0 0.02,0.01l0 0 0.01 0 0.01 0 0 0 0.01 0 0.01 0.01 0 0 0.01 0 0.02 0.01 0 0 0 0 0.02 0.01 0 0 0 0 0.01 0.01 0 0 0.01 0 0.02 0.01 0 0 0 0 0.04 0.01 0 0 0 0 0.02 0.01 0 0 0 0c0.05,0.02 0.09,0.04 0.14,0.06l0 0 0 0c0.02,0.01 0.04,0.02 0.05,0.02l0 0 0 0c0.01,0.01 0.02,0.01 0.04,0.02l0 0 0 0 0.01 0.01 0 0 0 0 0.04 0.01 0 0 0 0 0.01 0.01 0 0 0.01 0 0.02 0.01 0 0 0 0 0.01 0.01 0 0 0.01 0 0.01 0 0 0 0.01 0 0.02 0.01 0 0 0 0 0.01 0 0 0 0.01 0 0.01 0 0 0 0.01 0 0.01 0.01 0 0 0.01 0 0.01 0 0 0 0.01 0 0.01 0 0 0 0.01 0c0,0 0.01,0 0.01,0.01l0 0 0 0 0.01 0 0 0 0.01 0 0.01 0 0 0 0.01 0 0.02 0.01 0 0 0 0 0.01 0.01 0 0 0 0 0.01 0 0 0 0.01 0 0.02 0.01 0 0 0 0 0.02 0.01 0 0 0 0 0.01 0.01 0 0 0.01 0c0.01,0.01 0.02,0.01 0.03,0.02l0 0 0 0 0.01 0.01 0 0 0 0c0.02,0.01 0.03,0.02 0.05,0.02l0 0 0 0c0.03,0.02 0.07,0.03 0.1,0.05l0 0 0 0 0.02 0.01 0 0 0 0 0.01 0.01 0 0 0 0 0.01 0.01 0 0 0 0 0.01 0.01 0 0 0 0 0.01 0.01 0 0 0 0 0.01 0.01 0 0 0.01 0c0.02,0.01 0.04,0.02 0.07,0.03l0 0 0 0 0.01 0.01 0 0 0 0 0.01 0.01 0 0 0 0c0,0 0.01,0 0.01,0.01l0 0 0 0 0.01 0.01 0 0 0 0c0,0 0.01,0 0.01,0.01l0 0 0 0c0,0 0.01,0 0.01,0.01l0 0 0.01 0 0.01 0.01 0 0 0.01 0 0.01 0.01 0 0 0 0 0.01 0.01 0 0 0 0 0.01 0.01 0 0 0 0 0.01 0.01 0 0 0 0 0.01 0.01 0 0 0 0 0.01 0.01 0 0 0 0 0.01 0.01 0 0 0 0 0.01 0.01 0 0 0 0 0.01 0.01 0 0 0 0 0.01 0.01 0 0 0 0 0.01 0.01 0 0 0 0 0.01 0.01 0 0 0 0 0.01 0.01 0 0 0 0 0.01 0.01 0 0 0 0c0,0 0.01,0 0.01,0.01l0 0 0 0c0,0 0.01,0 0.02,0.01l0 0 0 0c0.01,0 0.01,0.01 0.02,0.01l0 0 0 0c0.03,0.02 0.07,0.04 0.1,0.05l0 0 0 0c0.02,0.01 0.04,0.02 0.05,0.03l0 0 0 0 0.01 0.01 0 0 0 0 0.01 0.01 0 0 0 0c0.01,0.01 0.03,0.01 0.04,0.02l0 0 0.01 0 0.01 0.01 0 0 0 0 0.01 0.01 0 0 0 0 0.01 0.01 0 0 0 0 0.01 0 0 0 0.01 0 0.01 0 0 0 0.01 0c0,0 0.01,0 0.01,0.01l0 0 0.01 0c0,0 0.01,0 0.01,0.01l0 0 0 0 0 0 0 0.01 0.01 0 0.01 0 0 0 0.01 0 0.01 0 0 0 0.01 0c0,0 0.01,0 0.01,0.01l0 0 0 0c0,0 0.01,0 0.01,0.01l0 0 0 0 0.01 0 0 0 0.01 0 0.01 0.01 0 0 0 0 0.01 0.01 0 0 0 0 0.02 0.01 0 0 0.01 0 0.01 0.01 0 0 0 0 0.01 0.01 0 0 0 0 0.02 0.01 0 0 0 0 0.01 0.01 0 0 0 0c0.02,0.01 0.04,0.02 0.05,0.03l0 0 0 0c0.05,0.03 0.09,0.06 0.14,0.09l0 0 0 0c0.01,0 0.01,0.01 0.02,0.01l0 0 0 0c0.01,0.01 0.02,0.02 0.04,0.02l0 0 0 0 0.02 0.01 0 0 0 0 0.01 0.01 0.01 0.01 0 0 0 0 0.01 0.01 0 0 0 0 0.01 0 0 0 0.01 0 0.01 0.01 0 0 0 0 0 0 0 0.01 0.01 0 0.01 0 0 0 0 0 0.01 0.01 0 0 0 0 0.01 0 0 0 0.01 0 0.01 0.01 0 0 0 0 0.01 0 0 0 0.01 0c0,0 0.01,0 0.01,0.01l0 0 0 0 0.01 0 0 0 0.01 0 0.01 0.01 0 0 0 0 0.01 0 0 0 0.01 0 0.01 0.01 0 0 0 0 0.01 0 0 0 0.01 0 0.01 0.01 0 0 0 0 0.02 0.01 0 0 0 0 0.02 0.01 0 0 0 0 0.02 0.01 0 0 0 0c0.01,0 0.01,0.01 0.02,0.01l0 0 0 0c0.04,0.03 0.08,0.05 0.12,0.08l0 0 0 0c0.01,0.01 0.02,0.02 0.03,0.02l0 0 0 0c0.01,0.01 0.01,0.01 0.02,0.02l0 0 0 0c0.01,0.01 0.02,0.01 0.03,0.02l0 0 0 0 0.02 0.02 0 0 0 0 0.01 0.01 0 0 0 0 0.02 0.01 0 0 0 0 0.01 0 0 0 0.01 0 0.01 0.01 0 0 0 0 0.01 0.01 0 0 0 0 0 0 0 0 0.01 0 0.01 0.01 0 0 0 0 0.01 0 0 0 0.01 0c0,0 0.01,0 0.01,0.01l0 0 0 0 0.01 0.01 0 0 0 0 0 0 0 0.01 0.01 0c0,0 0.01,0 0.01,0.01l0 0 0 0 0.01 0 0 0 0 0 0 0 0 0 0.01 0c0,0 0.01,0 0.01,0.01l0 0 0 0 0.01 0.01 0 0 0 0 0 0 0 0 0.01 0 0.01 0.01 0 0 0 0 0.01 0.01 0 0 0 0 0.01 0 0 0 0.01 0 0.02 0.01 0 0 0 0 0.03 0.02 0 0 0 0c0.01,0.01 0.02,0.02 0.03,0.02l0 0 0 0c0.01,0.01 0.02,0.02 0.03,0.02l0 0 0 0c0.01,0.01 0.02,0.02 0.03,0.02l0 0 0 0c0.03,0.02 0.05,0.04 0.08,0.06l0 0 0 0c0.02,0.01 0.03,0.03 0.05,0.04l0 0 0 0 0.01 0.01 0 0 0 0 0.03 0.02 0 0 0 0 0.01 0.01 0 0 0 0 0.01 0 0 0 0 0c0.01,0.01 0.01,0.01 0.02,0.02l0 0 0 0 0.01 0.01 0 0 0 0 0.01 0 0 0 0 0 0 0 0 0 0.01 0c0.01,0 0.01,0.01 0.02,0.01l0 0 0 0 0.01 0.01 0 0 0 0 0 0 0 0 0.01 0 0 0 0 0.01 0.01 0 0 0 0 0.01 0.01 0c0,0 0,0 0.01,0.01l0 0 0 0 0.01 0.01 0 0 0 0 0.01 0 0 0 0 0 0 0 0 0 0 0 0 0 0 0.01 0.01 0c0.01,0.01 0.01,0.01 0.02,0.02l0 0 0 0 0.01 0.01 0 0 0 0 0.01 0.01 0 0 0 0 0.01 0 0 0 0 0c0.01,0.01 0.02,0.02 0.04,0.03l0 0 0 0 0.01 0.01 0 0 0 0 0.01 0.01 0 0 0 0c0.01,0.01 0.02,0.02 0.04,0.03l0 0 0 0 0.01 0.01 0 0 0 0c0.02,0.02 0.04,0.04 0.06,0.05l0 0 0 0c0.04,0.03 0.07,0.07 0.11,0.1l0 0 0 0 0.01 0.01 0 0 0 0 0.01 0.01 0 0 0 0 0.01 0.01 0 0 0 0 0.01 0.01 0 0 0 0 0.01 0.01 0 0 0 0 0 0 0 0 0 0 0 0 0 0 0 0 0 0 0 0 0.01 0 0 0 0 0.01 0.01 0 0 0 0 0.01 0.01 0 0 0 0 0.01 0.01 0 0 0 0 0.01 0.01 0c0,0 0.01,0.01 0.01,0.01l0 0 0 0 0.01 0.01 0 0 0 0 0.01 0.01 0 0 0 0c0,0 0.01,0.01 0.01,0.01l0 0 0 0c0,0 0,0.01 0.01,0.01l0 0 0 0c0,0 0.01,0.01 0.01,0.01l0 0 0 0 0.01 0.01 0 0 0 0 0.01 0.01 0 0 0 0 0.01 0.01 0 0 0 0 0.01 0.01 0 0 0 0 0.01 0.01 0 0 0 0 0.01 0.01 0 0 0 0 0.01 0.01 0 0 0 0 0.01 0.01 0 0 0 0 0.01 0.01 0 0 0 0 0.01 0.01 0 0 0 0 0.01 0.01 0 0 0 0 0.01 0.01 0 0 0 0 0.01 0.01 0 0 0 0 0.01 0.01 0 0 0 0 0.01 0.01 0 0 0 0 0.01 0.01 0 0 0 0 0.01 0.01 0 0 0 0 0.01 0.01 0 0 0 0 0.01 0.01 0 0 0 0 0.01 0.01 0 0 0 0c0.02,0.02 0.03,0.03 0.05,0.05l0 0 0 0c0.03,0.03 0.05,0.06 0.08,0.08l0 0 0 0 0 0.01 0 0 0 0 0.01 0.01 0 0 0 0 0.01 0.01 0 0 0 0 0.01 0.01 0 0 0 0 0.01 0.01 0 0 0 0 0.01 0.01 0 0 0 0c0.01,0.01 0.02,0.02 0.03,0.03l0 0.01 0.01 0 0 0 0 0.01 0.01 0 0 0 0 0.01 0 0 0 0 0 0 0 0 0 0 0 0 0 0 0 0 0 0 0 0 0 0 0 0 0 0c0,0 0,0 0.01,0.01l0 0 0 0c0,0 0,0 0.01,0.01l0 0 0 0c0.01,0.01 0.01,0.01 0.02,0.02l0 0.01 0.01 0 0 0 0 0.01 0 0 0 0 0 0 0 0 0 0 0 0 0 0 0.01 0.01 0 0 0 0 0.01 0.01 0 0 0 0c0.01,0.01 0.02,0.02 0.03,0.04l0 0 0 0 0 0 0 0 0 0 0.01 0.01 0 0 0 0 0.01 0.01 0 0 0 0c0.02,0.02 0.04,0.04 0.05,0.06l0 0 0 0c0,0 0,0.01 0.01,0.01l0 0 0 0c0.02,0.03 0.05,0.06 0.07,0.09l0 0 0 0 0.01 0.01 0 0 0 0c0.01,0.01 0.02,0.02 0.02,0.03l0 0 0 0 0.01 0.01 0 0 0 0 0.02 0.03 0 0 0 0 0 0.01 0 0 0 0 0.01 0.01 0 0 0 0 0.01 0.01 0 0.01 0 0 0 0 0 0 0 0 0 0.01 0 0 0 0 0.01 0.01 0 0 0 0 0.01 0.01 0 0.01 0.01 0 0 0 0 0.01 0 0 0 0 0 0 0 0 0.01 0.01 0 0 0 0c0,0 0,0.01 0.01,0.01l0 0.01 0.01 0 0 0 0 0.01 0 0c0,0 0,0 0,0l0 0 0 0 0.01 0.01 0 0 0 0c0,0 0,0.01 0.01,0.01l0 0.01 0 0 0 0 0 0 0 0 0 0.01 0 0 0 0 0.01 0.01 0 0.01 0.01 0 0 0 0 0 0 0 0 0.01 0 0 0 0 0.01 0.02 0 0 0 0 0 0.01 0 0 0 0 0.02 0.03 0 0 0 0 0.01 0.01 0 0 0 0c0.01,0.01 0.02,0.02 0.02,0.03l0 0 0 0c0.01,0.01 0.02,0.02 0.02,0.03l0 0 0 0c0.02,0.03 0.04,0.06 0.06,0.09l0 0 0 0c0.01,0.01 0.01,0.01 0.02,0.02l0 0 0 0c0.01,0.01 0.01,0.02 0.02,0.03l0 0 0 0 0.02 0.02 0 0 0 0 0.01 0.02 0 0 0 0 0.01 0.01 0 0 0 0 0.01 0.01 0 0.01 0 0 0 0.01 0 0 0 0c0,0 0,0.01 0.01,0.01l0 0.01 0 0 0 0 0 0 0 0 0.01 0.01 0 0.01 0.01 0 0 0 0 0 0 0 0 0.01 0 0.01 0.01 0 0 0 0 0.01 0 0 0 0.01 0 0 0 0c0,0 0,0.01 0.01,0.01l0 0.01 0 0 0 0.01 0 0 0 0c0,0 0,0.01 0.01,0.01l0 0.01 0 0 0 0.01 0 0 0 0c0,0 0,0.01 0.01,0.01l0 0.01 0 0 0 0.01 0 0 0 0 0.01 0.01 0 0.01 0 0 0 0.01 0 0 0 0 0.01 0.01 0 0 0 0 0 0.01 0 0 0 0 0.01 0.01 0 0 0 0 0 0.01 0 0 0 0 0.01 0.01 0 0 0 0c0.03,0.05 0.07,0.1 0.1,0.16l0 0 0 0c0.01,0.01 0.02,0.02 0.02,0.04l0 0 0 0c0,0.01 0.01,0.02 0.01,0.02l0 0 0 0 0.01 0.01 0 0 0 0 0.01 0.01 0 0.01 0 0 0 0.01 0 0 0 0 0.01 0.01 0 0 0 0 0.01 0.01 0 0.01 0 0 0 0.01 0 0 0 0 0.01 0.01 0 0 0 0 0.01 0.01 0 0.01 0 0 0 0.01 0 0 0 0c0,0 0,0.01 0.01,0.01l0 0.01 0 0 0 0.01 0 0.01 0 0 0 0.01 0 0.01 0.01 0 0 0 0 0 0 0c0,0 0,0.01 0.01,0.01l0 0.01 0 0 0 0.01 0 0.01 0 0 0 0.01 0 0 0 0 0.01 0.01 0 0 0 0 0.01 0.01 0 0.01 0 0 0 0.01 0 0.01 0 0 0 0.01 0 0 0 0 0.01 0.01 0 0 0 0 0.01 0.01 0 0 0 0 0.01 0.02 0 0 0 0 0.01 0.01 0 0 0 0c0.01,0.02 0.02,0.04 0.03,0.05l0 0 0 0c0.01,0.02 0.03,0.05 0.04,0.07l0 0 0 0c0,0 0.01,0.01 0.01,0.02l0 0 0 0c0,0 0.01,0.01 0.01,0.01l0 0 0 0c0,0 0,0.01 0.01,0.01l0 0 0 0 0.01 0.01 0 0 0 0 0.01 0.01 0 0 0 0 0.01 0.01 0 0 0 0 0.01 0.01 0 0 0 0 0.01 0.01 0 0 0 0 0.01 0.01 0 0.01 0 0 0.01 0.01 0 0.01 0 0 0 0.01 0 0.01 0 0 0 0.01 0 0.01 0 0 0 0.01 0 0.01 0 0 0 0.01 0 0.01 0 0 0 0.01 0 0.01 0 0 0 0.01 0 0.01 0 0 0 0.01 0 0.01 0 0 0 0.01 0 0.01 0 0 0 0.01 0 0.01 0 0 0 0.01 0 0.01 0 0 0 0.01 0 0.01 0 0 0 0.01 0 0.01 0 0 0 0.01 0 0.01 0 0 0.01 0.01 0 0 0 0 0.01 0.01 0 0 0 0 0.01 0.01 0 0 0 0 0.01 0.01 0 0 0 0 0.01 0.01 0 0 0 0 0.01 0.01 0 0 0 0 0.01 0.02 0 0 0 0c0.02,0.05 0.05,0.1 0.07,0.15l0 0 0 0 0.01 0.01 0 0 0 0c0.01,0.01 0.01,0.02 0.02,0.04l0 0 0 0 0.01 0.01 0 0 0 0 0.01 0.02 0 0.01 0 0 0 0.01 0 0.01 0 0 0.01 0.01 0 0 0 0 0.01 0.01 0 0.01 0 0 0 0.01 0 0.01 0 0c0,0 0,0.01 0,0.01l0 0 0 0c0,0 0,0.01 0.01,0.01l0 0.01 0 0 0 0.01 0 0.01 0 0c0,0 0,0.01 0,0.01l0 0.01 0.01 0 0 0.01 0 0.01 0 0 0 0.01 0 0 0 0c0,0.01 0,0.01 0.01,0.02l0 0.01 0 0 0 0.01 0 0 0 0 0.01 0.02 0 0.01 0 0 0 0.01 0 0 0 0 0.01 0.02 0 0 0 0 0.01 0.02 0 0 0 0 0.01 0.02 0 0 0 0 0.01 0.02 0 0 0 0 0.01 0.02 0 0 0 0c0.01,0.01 0.01,0.03 0.02,0.04l0 0 0 0c0.01,0.01 0.01,0.03 0.02,0.04l0 0 0 0c0.01,0.04 0.03,0.07 0.04,0.11l0 0 0 0 0.01 0.02 0 0 0 0 0.01 0.02 0 0.01 0 0 0.01 0.02 0 0.01 0 0 0.01 0.01 0 0.01 0 0 0 0.01 0 0.01 0 0 0 0.01 0 0.01 0 0c0,0.01 0,0.01 0.01,0.02l0 0.01 0 0c0,0.01 0,0.01 0.01,0.01l0 0.01 0 0c0,0 0,0.01 0,0.01l0 0.01 0 0c0,0 0,0.01 0,0.01l0 0.01 0 0c0,0 0,0.01 0,0.01l0 0.01 0 0 0 0.01 0 0.01 0 0 0 0.01 0 0.01 0 0 0 0.01 0 0.01 0 0 0 0.01 0 0.01 0 0 0 0.01 0 0 0 0 0.01 0.02 0 0 0 0 0.01 0.02 0 0 0 0c0.02,0.05 0.03,0.1 0.05,0.15l0 0 0 0c0.01,0.02 0.01,0.03 0.02,0.05l0 0 0 0c0,0.01 0,0.02 0.01,0.02l0 0 0 0 0.01 0.03 0 0 0 0 0.01 0.02 0 0.01 0 0 0.01 0.02 0 0.01 0 0 0.01 0.02 0 0.01 0 0 0 0.02 0 0.01 0 0c0,0.01 0,0.01 0.01,0.02l0 0.01 0 0c0,0 0,0.01 0,0.01l0 0.02 0.01 0 0 0.01 0 0.01 0 0c0,0.01 0,0.01 0,0.02l0 0.02 0 0c0,0 0,0.01 0,0.02l0 0.01 0 0c0,0.01 0,0.01 0.01,0.02l0 0.01 0 0 0.01 0.02 0 0.01 0 0 0 0.02 0 0 0 0 0.01 0.03 0 0.01 0 0 0.01 0.02 0 0.01 0 0 0.01 0.02 0 0 0 0c0,0.01 0.01,0.02 0.01,0.03l0 0 0 0c0.01,0.03 0.02,0.06 0.02,0.09l0 0 0 0c0.01,0.02 0.01,0.05 0.02,0.07l0 0 0 0c0,0.01 0,0.02 0.01,0.03l0 0.01 0 0 0.01 0.03 0 0.01 0 0 0.01 0.03 0 0.01 0 0 0.01 0.02 0 0.02 0 0c0,0.01 0,0.01 0,0.02l0 0.01 0 0c0,0.01 0,0.01 0,0.02l0 0.02 0 0 0 0.02 0 0.02 0 0c0,0.01 0,0.01 0,0.02l0 0.02 0 0c0,0.01 0,0.02 0,0.02l0 0.02 0 0c0,0.01 0,0.02 0,0.02l0 0.02 0 0 0.01 0.02 0 0.01 0 0 0.01 0.03 0 0.01 0 0c0,0.01 0,0.02 0.01,0.03l0 0.01 0 0c0.01,0.05 0.02,0.11 0.03,0.16l0 0.01 0 0c0,0.01 0,0.03 0.01,0.04l0 0.01 0 0c0,0.01 0,0.03 0.01,0.04l0 0.01 0 0 0.01 0.04 0 0.02 0 0c0,0.01 0,0.02 0.01,0.03l0 0.02 0 0c0,0.01 0,0.02 0,0.03l0 0.02 0 0c0,0.01 0,0.02 0,0.03l0 0.03 0 0c0,0.01 0,0.02 0,0.02l0 0.02 0 0c0,0.01 0,0.02 0,0.03l0 0.02 0 0c0,0.01 0,0.02 0,0.03l0 0.02 0 0 0.01 0.04 0 0.01 0 0c0,0.02 0,0.03 0.01,0.05l0 0.01 0 0c0.01,0.06 0.02,0.12 0.02,0.17l0 0.01 0 0c0,0.02 0,0.04 0.01,0.06l0 0.02 0 0 0.01 0.05 0 0.02 0 0c0,0.02 0,0.03 0.01,0.05l0 0.03 0 0c0,0.01 0,0.02 0,0.03l0 0.04 0 0c0,0.01 0,0.03 0,0.04l0 0.03 0 0c0,0.02 0,0.04 0.01,0.06l0 0.02 0 0c0,0.02 0,0.04 0.01,0.06l0 0.02 0 0c0.01,0.06 0.01,0.12 0.01,0.18l0 0.01 0 0c0,0.04 0,0.07 0.01,0.11l0 0.04 0 0c0,0.03 0,0.05 0.01,0.08l0 0.07 0 0c0,0.03 0,0.05 0,0.08l0 0.06 0 0c0,0.04 0,0.08 0.01,0.13l0 0.02 0 0c0,0.09 0.01,0.18 0.01,0.26l0 0.28 0 0c0,0.14 -0,0.27 -0,0.41l-0 0 0 0.02c-0,0.06 -0,0.13 -0.01,0.2l-0 0 0 0.11c-0,0.04 -0,0.07 -0,0.11l-0 0 0 0.07c-0,0.05 -0,0.1 -0.01,0.15l-0 0 0 0.02c-0,0.03 -0,0.06 -0,0.09 -0.01,0.03 -0.02,0.07 -0.03,0.1l-0 0 0 0 -0.01 0.03 -0 0 0 0 -0.01 0.03 -0 0 0 0 -0.01 0.02 -0 0 0 0.01 -0.01 0.02 -0 0 0 0.01 -0.01 0.03 -0 0 0 0 -0.01 0.02 -0 0 0 0.01c-0,0.01 -0,0.01 -0.01,0.02l-0 0 0 0.01c-0,0.01 -0,0.01 -0.01,0.02l-0 0 0 0.01 -0 0.01 -0 0 0 0.01c-0,0.01 -0,0.01 -0.01,0.02l-0 0 0 0.01c-0,0.01 -0,0.01 -0.01,0.02l-0 0 0 0.01 -0 0.02 -0 0 0 0.01 -0.01 0.02 -0 0 0 0.01 -0.01 0.03 -0 0 0 0c-0,0.02 -0.01,0.04 -0.02,0.05l-0 0 0 0c-0.02,0.05 -0.03,0.11 -0.05,0.16l-0 0 0 0c-0.01,0.03 -0.02,0.07 -0.03,0.1l-0 0 0 0 -0.01 0.02 -0 0 0 0 -0.01 0.02 -0 0 0 0.01 -0.01 0.02 -0 0 0 0.01 -0.01 0.02 -0 0 0 0 -0.01 0.02 -0 0 0 0c-0,0.01 -0,0.01 -0.01,0.02l-0 0 0 0.01c-0,0.01 -0,0.01 -0.01,0.02l-0 0 0 0.01c-0,0.01 -0,0.01 -0,0.02l-0 0 0 0.01c-0,0 -0,0.01 -0,0.01l-0 0 0 0.01 -0 0.01 -0 0 0 0.01c-0,0.01 -0,0.01 -0.01,0.02l-0 0 0 0 -0.01 0.02 -0 0 0 0 -0.01 0.02 -0 0 0 0 -0.01 0.02 -0 0 0 0 -0.01 0.02 -0 0 0 0 -0.01 0.02 -0 0 0 0c-0.02,0.07 -0.05,0.14 -0.07,0.21l-0 0 0 0 -0.01 0.02 0 0 0 0c-0.01,0.02 -0.01,0.04 -0.02,0.06l-0 0 0 0 -0.01 0.02 -0 0 0 0 -0.01 0.02 -0 0 0 0 -0.01 0.02 0 0 0 0 -0.01 0.02 -0 0 0 0.01 -0.01 0.02 -0 0 0 0.01c-0,0.01 -0,0.01 -0.01,0.02l-0 0 0 0c-0,0.01 -0,0.01 -0.01,0.02l-0 0 0 0 -0 0.01 -0 0 0 0.01 -0.01 0.01 -0 0 0 0.01c-0,0.01 -0,0.01 -0.01,0.02l-0 0 0 0c-0,0.01 -0,0.01 -0.01,0.02l-0 0 0 0 -0.01 0.01 -0 0 0 0.01 -0.01 0.02 -0 0 0 0 -0.01 0.02 -0 0 0 0 -0.01 0.04 -0 0 0 0 -0.01 0.02 -0 0 0 0c-0.01,0.02 -0.02,0.04 -0.02,0.06l-0 0 0 0c-0.01,0.02 -0.02,0.04 -0.02,0.06l-0 0 0 0c-0.01,0.03 -0.02,0.05 -0.03,0.08l-0 0 0 0c-0.01,0.01 -0.01,0.03 -0.02,0.04l-0 0 0 0 -0.02 0.04 -0 0 0 0 -0.02 0.04 -0 0 0 0 -0.01 0.01 -0 0 0 0.01 -0.01 0.02 -0 0 0 0 -0.01 0.01 -0 0 0 0.01 -0.01 0.02 -0 0 0 0 -0.01 0.01 -0 0 0 0c-0,0.01 -0.01,0.01 -0.01,0.02l-0 0 0 0c-0,0 -0,0.01 -0.01,0.01l-0 0 0 0.01 -0 0.01 -0 0 0 0.01 -0.01 0.02 -0 0 0 0 -0.01 0.01 -0 0 0 0.01c-0,0.01 -0.01,0.01 -0.01,0.02l-0 0 0 0 -0.01 0.01 -0 0 0 0 -0.01 0.01 -0 0 0 0.01 -0.01 0.02 -0 0 0 0 -0.01 0.01 -0 0 0 0 -0.01 0.04 -0 0 0 0c-0.01,0.02 -0.02,0.04 -0.02,0.05l-0 0 0 0c-0.01,0.01 -0.01,0.02 -0.02,0.04l0 0 0 0c-0.02,0.04 -0.04,0.08 -0.06,0.13l0 0 -0.01 0.02 -0 0 0 0c-0.01,0.02 -0.02,0.05 -0.03,0.07l-0 0 0 0 -0.01 0.02 -0 0 0 0 -0.01 0.01 -0 0 0 0c-0.01,0.01 -0.01,0.02 -0.02,0.04l0 0 0 0 -0.01 0.02 -0 0 0 0 -0.01 0.01 -0 0 0 0 -0.01 0.01 -0 0 0 0.01 -0 0.01 -0 0 0 0.01c-0,0.01 -0.01,0.01 -0.01,0.02l-0 0 0 0 -0.01 0.02 -0 0 0 0 -0.01 0.01 -0 0 0 0 -0.01 0.01 -0 0 0 0 -0.01 0.01 -0 0 0 0.01 -0.01 0.01 -0 0 0 0.01c-0.01,0.02 -0.02,0.03 -0.02,0.05l-0 0 0 0 -0.01 0.02 -0 0 0 0 -0.01 0.01 -0 0 0 0 -0.01 0.01 -0 0 0 0c-0.02,0.04 -0.04,0.08 -0.05,0.12l-0 0 0 0c-0.02,0.04 -0.04,0.08 -0.06,0.13l-0 0 0 0 -0.01 0.01 -0 0 0 0 -0.01 0.01 -0 0 0 0 -0.01 0.01 -0 0 0 0 -0.01 0.01 -0 0 0 0 -0.01 0.01 -0 0 0 0 -0.01 0.01 -0 0 0 0 -0.01 0.01 -0 0 0 0 -0.01 0.01 -0 0 0 0 -0.01 0.01 -0 0 0 0 -0.01 0.01 -0 0 0 0 -0.01 0.01 -0 0 0 0 -0.01 0.01 -0 0 0 0 -0.01 0.01 -0 0 0 0c-0,0 -0,0.01 -0.01,0.01l-0 0 0 0c-0,0 -0,0.01 -0.01,0.01l-0 0 0 0 -0.01 0.01 -0 0 0 0c-0.01,0.01 -0.01,0.03 -0.02,0.04l-0 0 0 0.01 -0.01 0.01 -0 0 0 0.01 -0.01 0.01 -0 0 0 0 -0.01 0.01 -0 0 0 0 -0.01 0.01 -0 0 0 0 -0.01 0.01 -0 0 0 0 -0.01 0.01 -0 0 0 0 -0.01 0.01 -0 0 0 0c-0.04,0.07 -0.07,0.14 -0.11,0.21l-0 0 0 0c-0.01,0.02 -0.03,0.05 -0.04,0.07l-0 0 0 0 -0.01 0.01 0 0 0 0c-0.01,0.01 -0.01,0.03 -0.02,0.04l-0 0 0 0 -0.01 0.01 -0 0 0 0 -0.01 0.01 -0 0 0 0c-0,0.01 -0.01,0.02 -0.01,0.02l-0 0 0 0.01 -0.01 0.01 -0 0 0 0 -0.01 0.01 -0 0 0 0 -0.01 0.01 -0 0 0 0 -0 0.01 -0 0 0 0.01 -0.01 0.01 -0 0 0 0 -0.01 0.01 -0 0 0 0 -0.01 0.01 -0 0 0 0c-0,0.01 -0.01,0.02 -0.01,0.02l-0 0 0 0 -0.01 0.01 -0 0 0 0c-0.01,0.01 -0.01,0.03 -0.02,0.04l-0 0 0 0 -0.01 0.01 -0 0 0 0 -0.02 0.04 -0 0 0 0 -0.01 0.01 0 0 0 0c-0.01,0.01 -0.02,0.03 -0.02,0.04l-0 0 0 0c-0.03,0.04 -0.05,0.09 -0.08,0.13l0 0 0 0c-0.01,0.02 -0.03,0.04 -0.04,0.06l-0 0 0 0 -0.02 0.04 -0 0 0 0 -0.01 0.02 -0 0 0 0 -0.01 0.01 -0 0 0 0 -0.01 0.02 -0 0 0 0 -0.01 0.01 -0 0 0 0 -0 0.01 -0 0 0 0.01 -0.01 0.01 -0 0 0 0c-0,0.01 -0.01,0.01 -0.01,0.02l-0 0 0 0.01 -0.01 0.01 -0 0 0 0 -0 0.01 -0 0 0 0.01 -0.01 0.01 -0 0 0 0c-0,0.01 -0.01,0.01 -0.01,0.02l-0 0 0 0 -0.01 0.01 -0 0 0 0c-0.01,0.01 -0.01,0.02 -0.01,0.02l-0 0 0 0 -0.01 0.02 -0 0 0 0 -0.02 0.04 -0 0 0 0 -0.01 0.02 -0 0 0 0c-0.01,0.02 -0.03,0.04 -0.04,0.06l-0 0 0 0c-0.05,0.07 -0.09,0.14 -0.14,0.21l-0 0 0 0 -0.01 0.02 -0 0 0 0 -0.01 0.02 -0 0 0 0c-0,0.01 -0.01,0.01 -0.01,0.02l-0 0 0 0c-0,0.01 -0.01,0.01 -0.01,0.02l-0 0 0 0c-0,0.01 -0.01,0.01 -0.01,0.02l-0 0 0 0 -0.01 0.02 -0 0 0 0c-0,0.01 -0.01,0.01 -0.01,0.02l-0 0 0 0c-0,0.01 -0.01,0.01 -0.02,0.02l-0 0 0 0 -0 0.01 -0 0 0 0 -0.01 0.01 -0 0 0 0 -0.01 0.01 -0 0 0 0 -0.01 0.02 -0 0 0 0 -0.01 0.02 -0 0 0 0 -0.02 0.02 -0 0 0 0c-0.02,0.03 -0.05,0.07 -0.07,0.1l0 0 0 0c-0.01,0.02 -0.03,0.04 -0.04,0.05l-0 0 0 0c-0.02,0.03 -0.04,0.06 -0.06,0.09l-0 0 0 0 -0.02 0.03 -0 0 0 0 -0.02 0.02 0 0 0 0 -0.01 0.01 -0 0 0 0 -0.02 0.02 -0 0 0 0 -0 0.01 -0 0 0 0 -0.01 0.02 -0 0 0 0 -0 0.01 -0 0 0 0.01 -0.01 0.01 0 0 0 0 -0.01 0.01 -0 0 0 0 -0.02 0.02 -0 0 0 0 -0.01 0.01 -0 0 0 0c-0.01,0.01 -0.01,0.01 -0.02,0.02l-0 0 0 0 -0.01 0.01 -0 0 0 0c-0.01,0.01 -0.01,0.01 -0.02,0.02l-0 0 0 0 -0.01 0.01 -0 0 0 0 -0.02 0.02 0 0 0 0 -0.01 0.01 -0 0 0 0 -0.02 0.03 -0 0 0 0 -0.02 0.03 -0 0 0 0c-0.03,0.04 -0.06,0.08 -0.09,0.12l0 0 0 0c-0.01,0.01 -0.02,0.03 -0.03,0.04l-0 0 0 0c-0.01,0.01 -0.02,0.03 -0.03,0.04l-0 0 0 0c-0.01,0.01 -0.02,0.03 -0.03,0.04l-0 0 0 0 -0.02 0.03 -0 0 0 0 -0.01 0.01 -0 0 0 0c-0.01,0.01 -0.02,0.02 -0.02,0.03l-0 0 0 0 -0.01 0.01 -0 0 0 0c-0.01,0.01 -0.02,0.02 -0.02,0.03l-0 0 0 0 -0.01 0.01 -0 0 0 0 -0.02 0.03 -0 0 0 0 -0.01 0.01 -0 0 0 0 -0 0 -0 0 0 0c-0.01,0.01 -0.01,0.01 -0.02,0.02l0 0 0 0 -0.01 0.01 -0 0 0 0 -0 0.01 -0 0 0 0c-0.01,0.01 -0.02,0.02 -0.02,0.03l-0 0 0 0 -0.01 0.01 -0 0 0 0 -0.03 0.04 -0 0 0 0c-0.01,0.01 -0.02,0.03 -0.03,0.04l-0 0 0 0c-0.02,0.03 -0.05,0.06 -0.07,0.09l0 0 0 0c-0.02,0.02 -0.03,0.04 -0.05,0.06l0 0 0 0c-0.02,0.02 -0.03,0.04 -0.05,0.06l-0 0 0 0 -0.01 0.01 -0 0 0 0 -0.04 0.05 -0 0 0 0 -0.01 0.01 -0 0 0 0 -0.01 0.01 -0 0 0 0c-0.01,0.01 -0.02,0.02 -0.03,0.04l-0 0 0 0 -0.01 0.01 -0 0 0 0 -0.01 0.01 -0 0 0 0 -0 0.01 -0 0 0 0 -0.03 0.04 -0 0 0 0 -0.01 0.01 -0 0 0 0 -0.01 0.01 -0 0 0 0 -0 0.01 -0 0 0 0c-0.01,0.01 -0.03,0.03 -0.04,0.04l-0 0 0 0 -0.01 0.01 -0 0 0 0 -0.01 0.01 -0 0 0 0c-0.02,0.02 -0.03,0.04 -0.05,0.05l-0 0 0 0 -0.01 0.01 -0 0 0 0c-0.05,0.06 -0.1,0.11 -0.15,0.16l-0 0 0 0 -0.01 0.01 -0 0 0 0 -0.01 0.01 -0 0 0 0c-0.03,0.03 -0.06,0.06 -0.09,0.09l-0 0 0 0 -0.01 0.01 -0 0 0 0 -0.01 0.01 -0 0 0 0 -0.01 0.01 -0 0 0 0 -0.01 0.01 -0 0 0 0 -0 0 -0 0 0 0 -0 0 -0 0 0 0 -0 0 -0 0 0 0c-0.03,0.03 -0.06,0.06 -0.09,0.09l0 0 0 0 -0.01 0.01 -0 0 0 0 -0.01 0.01 -0 0 0 0 -0.01 0.01 -0 0 0 0 -0.01 0.01 -0 0 0 0 -0.01 0.01 -0 0 0 0 -0.01 0.01 -0 0 0 0 -0.01 0.01 -0 0 0 0c-0.11,0.11 -0.22,0.22 -0.33,0.33l-0 0 0 0 -0 0 -0 0 0 0 -0 0 -0 0 0 0 -0 0 -0 0 0 0 -0 0 -0 0 0 0 -0 0 -0 0 0 0 -0 0 -0 0 0 0 -0 0 -0 0 0 0 -0.01 0 -0 0 0 0 -0.01 0.01 -0 0 0 0 -0.01 0.01 -0 0 0 0 -0.01 0.01 -0 0 0 0 -0.01 0.01 -0 0 0 0 -0.01 0.01 -0 0 0 0 -0.01 0.01 -0 0 0 0 -0.01 0.01 -0 0 0 0c-0.08,0.08 -0.17,0.16 -0.25,0.24l-0 0 0 0 -0.01 0.01 -0 0 0 0c-0.02,0.02 -0.04,0.04 -0.06,0.06l-0 0 0 0 -0.01 0 -0 0 0 0 -0.01 0.01 -0 0 0 0 -0.01 0.01 -0 0 0 0 -0.01 0.01 -0 0 0 0c-0.01,0.01 -0.03,0.03 -0.04,0.04l-0 0 0 0 -0 0 -0 0 0 0 -0 0 -0 0 0 0 -0.01 0 -0 0 0 0 -0.01 0.01 -0 0 0 0 -0.01 0.01 -0 0 0 0c-0.01,0.01 -0.02,0.02 -0.04,0.03l-0 0 0 0 -0.01 0 -0 0 0 0 -0.01 0.01 -0 0 0 0 -0.01 0.01 -0 0 0 0c-0.02,0.02 -0.04,0.03 -0.05,0.05l-0 0 0 0 -0.01 0.01 -0 0 0 0c-0.02,0.02 -0.05,0.04 -0.07,0.06l-0 0 0 0c-0.04,0.03 -0.07,0.06 -0.11,0.09l-0 0 0 0c-0.02,0.01 -0.03,0.03 -0.05,0.04l-0 0 0 0 -0.05 0.04 -0 0 0 0 -0.01 0.01 -0 0 0 0c-0.01,0.01 -0.02,0.02 -0.03,0.02l-0 0 0 0 -0.01 0 -0 0 0 0 -0.01 0.01 -0 0 0 0c-0.01,0.01 -0.02,0.02 -0.03,0.02l-0 0 0 0 -0 0 -0 0 0 0 -0.01 0.01 -0 0 0 0 -0.01 0.01 -0 0 0 0c-0.01,0.01 -0.01,0.01 -0.02,0.02l-0 0 0 0 -0.01 0 -0 0 0 0 -0.01 0.01 -0 0 0 0c-0.01,0.01 -0.02,0.02 -0.03,0.02l-0 0 0 0 -0.01 0.01 -0 0 0 0c-0.01,0.01 -0.03,0.02 -0.04,0.03l-0 0 0 0 -0.04 0.03 -0 0 0 0 -0.01 0.01 -0 0 0 0c-0.01,0.01 -0.03,0.02 -0.04,0.03l-0 0 0 0c-0.04,0.03 -0.08,0.06 -0.12,0.09l-0 0 0 0c-0.01,0.01 -0.02,0.02 -0.03,0.02l-0 0 0 0c-0.01,0.01 -0.03,0.02 -0.04,0.03l-0 0 0 0 -0.03 0.02 -0 0 0 0 -0.03 0.02 -0 0 0 0 -0.01 0.01 -0 0 0 0 -0.02 0.02 -0 0 0 0 -0.01 0.01 -0 0 0 0c-0.01,0 -0.01,0.01 -0.02,0.01l-0 0 0 0 -0.01 0 -0 0 0 0 -0.01 0.01 -0 0 0 0 -0.02 0.02 -0 0 0 0 -0.01 0.01 -0 0 0 0c-0.01,0.01 -0.01,0.01 -0.02,0.02l-0 0 0 0 -0.01 0.01 -0 0 0 0c-0.01,0.01 -0.01,0.01 -0.02,0.02l-0 0 0 0 -0.01 0.01 -0 0 0 0 -0.02 0.02 -0 0 0 0 -0.01 0.01 -0 0 0 0 -0.02 0.02 -0 0 0 0 -0.01 0.01 0 0 0 0c-0.07,0.05 -0.14,0.1 -0.2,0.15l-0 0 0 0c-0.02,0.01 -0.04,0.03 -0.05,0.04l-0 0 0 0 -0.02 0.01 -0 0 0 0 -0.03 0.02 -0 0 0 0 -0.02 0.01 -0 0 0 0 -0.02 0.01 -0 0 0 0 -0.01 0 -0 0 0 0c-0.01,0 -0.01,0.01 -0.02,0.01l-0 0 0 0c-0.01,0 -0.01,0.01 -0.02,0.01l-0 0 0 0 -0.01 0 -0 0 0 0 -0.01 0.01 -0.01 0 0 0 -0.01 0 -0 0 0 0c-0.01,0 -0.01,0.01 -0.02,0.01l-0 0 0 0 -0.02 0.01 -0 0 0 0 -0.02 0.01 -0 0 0 0 -0.01 0.01 -0 0 0 0 -0.02 0.02 -0 0 0 0 -0.02 0.02 -0 0 0 0 -0.02 0.01 -0 0 0 0c-0.03,0.02 -0.05,0.04 -0.08,0.05l-0 0 0 0c-0.02,0.02 -0.05,0.03 -0.07,0.05l-0 0 0 0c-0.01,0.01 -0.02,0.01 -0.02,0.02l0 0 0 0c-0.03,0.02 -0.06,0.04 -0.08,0.06l-0 0 0 0 -0.02 0.01 -0 0 0 0 -0.02 0.01 -0 0 0 0 -0.02 0.01 -0 0 0 0 -0.01 0.01 -0.01 0 0 0 -0.01 0 -0 0 0 0 -0.01 0.01 -0 0 0 0 -0.01 0 -0 0 0 0c-0,0 -0.01,0.01 -0.01,0.01l-0 0 0 0 -0.01 0.01 -0.01 0.01 -0 0 0 0c-0.01,0 -0.01,0.01 -0.02,0.01l-0 0 0 0 -0.01 0.01 -0.01 0 0 0 -0.01 0 -0 0 0 0 -0.01 0.01 -0 0 0 0c-0.01,0 -0.01,0.01 -0.02,0.01l-0 0 0 0 -0.02 0.01 -0 0 0 0 -0.01 0.01 -0 0 0 0 -0.02 0.01 -0 0 0 0 -0.02 0.01 -0 0 0 0c-0.02,0.01 -0.04,0.03 -0.06,0.04l-0 0 0 0c-0.02,0.01 -0.04,0.03 -0.06,0.04l-0 0 0 0c-0.01,0.01 -0.03,0.02 -0.04,0.02l-0 0 0 0c-0.01,0.01 -0.03,0.02 -0.04,0.02l0 0 0 0c-0.02,0.01 -0.04,0.02 -0.05,0.03l-0 0 0 0 -0.04 0.02 -0 0 0 0c-0.01,0.01 -0.02,0.02 -0.04,0.02l-0 0 0 0 -0.01 0.01 -0 0 0 0 -0.02 0.01 -0 0 0 0 -0.01 0.01 -0 0 0 0c-0.01,0 -0.01,0.01 -0.02,0.01l-0 0 0 0 -0.01 0.01 -0 0 0 0 -0.01 0.01 -0.01 0 0 0c-0.01,0 -0.01,0.01 -0.02,0.01l-0 0 0 0 -0.01 0.01 -0 0 0 0c-0.01,0.01 -0.03,0.01 -0.04,0.02l-0 0 0 0 -0.01 0.01 -0 0 0 0 -0.04 0.02 -0 0 0 0c-0.02,0.01 -0.04,0.02 -0.05,0.03l-0 0 0 0c-0.04,0.02 -0.07,0.04 -0.11,0.06l-0 0 0 0c-0.03,0.02 -0.06,0.03 -0.09,0.05l0 0 0 0 -0.01 0.01 -0 0 0 0 -0.01 0.01 -0 0 0 0 -0.01 0.01 -0 0 0 0c-0.02,0.01 -0.04,0.02 -0.05,0.03l-0 0 0 0 -0.01 0.01 -0 0 0 0 -0.01 0.01 -0 0 0 0 -0.01 0.01 -0 0 0 0 -0.01 0.01 -0.01 0 0 0c-0.01,0 -0.02,0.01 -0.02,0.01l-0 0 0 0 -0.01 0.01 -0 0 0 0 -0.01 0.01 -0 0 0 0 -0.01 0.01 -0 0 0 0 -0.01 0.01 -0 0 0 0 -0.01 0.01 -0 0 0 0 -0.01 0.01 -0 0 0 0 -0.01 0.01 -0 0 0 0c-0.03,0.02 -0.06,0.03 -0.09,0.05l-0 0 0 0 -0.02 0.01 -0 0 0 0 -0.01 0.01 -0 0 0 0 -0.01 0.01 -0 0 0 0c-0.06,0.03 -0.12,0.06 -0.19,0.09l-0 0 0 0 -0.01 0.01 -0 0 0 0 -0.01 0.01 -0 0 0 0 -0.01 0.01 -0 0 0 0 -0.01 0.01 -0 0 0 0 -0.01 0.01 -0 0 0 0 -0.01 0.01 -0 0 0 0 -0.02 0.01 -0 0 0 0 -0.02 0.01 -0 0 0 0 -0.02 0.01 0 0 0 0c-0.01,0.01 -0.02,0.01 -0.03,0.02l-0.01 0 0 0 -0.01 0 -0.01 0 0 0 -0.01 0 -0.01 0 0 0 -0.01 0 -0.01 0 0 0 -0.01 0.01 -0 0 0 0 -0.01 0.01 -0 0 0 0 -0.01 0.01 -0 0 0 0 -0.01 0.01 -0 0 0 0c-0.02,0.01 -0.04,0.02 -0.07,0.03l-0 0 0 0 -0.01 0.01 -0 0 0 0 -0.01 0.01 -0 0 0 0 -0.01 0.01 -0 0 0 0c-0.06,0.03 -0.13,0.06 -0.19,0.09l-0 0 0 0c-0.02,0.01 -0.04,0.02 -0.05,0.02l-0 0 0 0c-0.02,0.01 -0.03,0.02 -0.05,0.02l-0 0 0 0 -0.01 0.01 -0 0 0 0c-0.01,0 -0.02,0.01 -0.03,0.02l-0.01 0 0 0 -0.01 0.01 -0 0 0 0 -0.02 0.01 -0 0 0 0c-0.01,0 -0.01,0.01 -0.02,0.01l-0.01 0 0 0 -0.01 0.01 -0 0 0 0 -0.01 0.01 -0 0 0 0c-0.01,0 -0.01,0 -0.02,0.01l-0.01 0 0 0 -0.01 0 -0 0 0 0 -0.02 0.01 -0 0 0 0 -0.02 0.01 -0.01 0 0 0 -0.01 0.01 -0 0 0 0c-0.01,0.01 -0.02,0.01 -0.04,0.01l-0 0 0 0 -0.02 0.01 -0 0 0 0 -0.04 0.02 -0 0 0 0c-0.02,0.01 -0.04,0.02 -0.05,0.02l-0 0 0 0c-0.07,0.03 -0.13,0.05 -0.2,0.08l-0 0 0 0 -0.04 0.02 -0 0 0 0 -0.02 0.01 -0 0 0 0 -0.02 0.01 -0 0 0 0 -0.02 0.01 -0 0 0 0 -0.02 0.01 -0.01 0 0 0 -0.01 0.01 -0 0 0 0 -0.02 0.01 -0.01 0 0 0 -0.01 0.01 -0 0 0 0c-0.01,0 -0.01,0 -0.02,0.01l-0.01 0 0 0 -0.01 0.01 -0.01 0 0 0c-0,0 -0.01,0 -0.01,0l-0 0 0 0c-0.01,0 -0.01,0 -0.02,0.01l-0.01 0 0 0 -0.02 0.01 -0.01 0 0 0 -0.01 0 -0 0 0 0 -0.02 0.01 -0 0 0 0 -0.04 0.01 -0 0 0 0 -0.02 0.01 -0 0 0 0 -0.04 0.01 -0 0 0 0 -0.02 0.01 -0 0 0 0c-0.07,0.02 -0.13,0.05 -0.2,0.07l0 0 0 0 -0.02 0.01 -0 0 0 0 -0.02 0.01 -0 0 0 0 -0.02 0.01 -0 0 0 0 -0.02 0.01 -0 0 0 0 -0.02 0.01 -0 0 0 0 -0.02 0.01 -0 0 0 0 -0.02 0.01 -0.01 0 0 0 -0.02 0.01 -0.01 0 0 0c-0.01,0 -0.01,0 -0.02,0.01l-0.01 0 0 0c-0.01,0 -0.01,0 -0.02,0.01l-0.01 0 0 0c-0.01,0 -0.01,0 -0.02,0.01l-0.01 0 0 0c-0.01,0 -0.01,0 -0.02,0.01l-0.01 0 0 0 -0.02 0.01 -0.01 0 0 0 -0.02 0.01 -0 0 0 0 -0.02 0.01 -0 0 0 0 -0.02 0.01 -0 0 0 0 -0.02 0.01 -0 0 0 0 -0.02 0.01 -0 0 0 0 -0.02 0.01 -0 0 0 0c-0.05,0.02 -0.1,0.03 -0.15,0.05l-0 0 0 0c-0.02,0.01 -0.03,0.01 -0.05,0.02l-0 0 0 0c-0.01,0 -0.02,0 -0.02,0.01l-0 0 0 0c-0.02,0.01 -0.04,0.01 -0.05,0.02l-0 0 0 0 -0.02 0.01 -0 0 0 0 -0.03 0.01 -0.01 0 0 0 -0.02 0.01 -0 0 0 0 -0.02 0.01 -0.01 0 0 0 -0.02 0.01 -0 0 0 0c-0.01,0 -0.01,0 -0.02,0.01l-0.01 0 0 0c-0.01,0 -0.01,0 -0.02,0.01l-0.01 0 0 0c-0.01,0 -0.01,0 -0.02,0.01l-0.01 0 0 0c-0.01,0 -0.01,0 -0.02,0.01l-0.01 0 0 0c-0.01,0 -0.02,0 -0.02,0.01l-0.01 0 0 0 -0.02 0.01 -0 0 0 0 -0.03 0.01 -0.01 0 0 0 -0.02 0.01 -0 0 0 0 -0.03 0.01 -0 0 0 0c-0.02,0 -0.04,0.01 -0.05,0.01l-0 0 0 0c-0.06,0.02 -0.12,0.03 -0.18,0.05l-0 0 0 0c-0.01,0 -0.02,0 -0.03,0.01l-0 0 0 0 -0.03 0.01 -0 0 0 0 -0.03 0.01 -0 0 0 0 -0.03 0.01 -0.01 0 0 0 -0.03 0.01 -0.01 0 0 0c-0.01,0 -0.02,0 -0.03,0.01l-0.01 0 0 0c-0.01,0 -0.02,0 -0.03,0.01l-0.01 0 0 0c-0.01,0 -0.01,0 -0.02,0l-0.01 0 0 0c-0.01,0 -0.01,0 -0.02,0l-0.01 0 0 0c-0.01,0 -0.01,0 -0.02,0l-0.01 0 0 0c-0.01,0 -0.02,0 -0.02,0.01l-0.01 0 0 0 -0.03 0.01 -0 0 0 0 -0.03 0.01 -0 0 0 0 -0.03 0.01 -0.01 0 0 0 -0.03 0.01 -0 0 0 0c-0.01,0 -0.02,0 -0.03,0.01l-0 0 0 0c-0.05,0.01 -0.09,0.02 -0.14,0.03l-0 0 0 0c-0.01,0 -0.02,0.01 -0.04,0.01l-0 0 0 0c-0.01,0 -0.02,0 -0.04,0.01l-0 0 0 0 -0.03 0.01 -0.01 0 0 0 -0.03 0.01 -0.01 0 0 0 -0.03 0.01 -0.01 0 0 0c-0.01,0 -0.02,0 -0.03,0.01l-0.01 0 0 0c-0.01,0 -0.02,0 -0.03,0.01l-0.01 0 0 0c-0.01,0 -0.02,0 -0.03,0.01l-0.01 0 0 0c-0.01,0 -0.02,0 -0.03,0.01l-0.02 0 0 0c-0.01,0 -0.02,0 -0.02,0l-0.01 0 0 0c-0.01,0 -0.02,0 -0.03,0.01l-0.01 0 0 0 -0.03 0.01 -0.01 0 0 0 -0.03 0.01 -0.01 0 0 0c-0.01,0 -0.02,0 -0.04,0.01l-0 0 0 0c-0.06,0.01 -0.12,0.02 -0.18,0.03l-0 0 0 0c-0.01,0 -0.03,0 -0.04,0.01l-0 0 0 0c-0.02,0 -0.03,0.01 -0.04,0.01l-0.01 0 0 0 -0.04 0.01 -0.01 0 0 0c-0.01,0 -0.03,0 -0.04,0.01l-0.02 0 0 0c-0.01,0 -0.02,0 -0.03,0.01l-0.02 0 0 0 -0.03 0 -0.02 0 0 0c-0.01,0 -0.02,0 -0.03,0.01l-0.02 0 0 0c-0.01,0 -0.02,0 -0.04,0l-0.01 0 0 0 -0.04 0.01 -0.01 0 0 0c-0.01,0 -0.03,0 -0.04,0.01l-0 0 0 0c-0.02,0 -0.04,0.01 -0.05,0.01l-0 0 0 0c-0.04,0.01 -0.08,0.01 -0.12,0.02l-0 0 0 0c-0.02,0 -0.04,0.01 -0.06,0.01l-0.01 0 0 0c-0.02,0 -0.04,0 -0.06,0.01l-0.01 0 0 0c-0.02,0 -0.04,0 -0.05,0.01l-0.02 0 0 0c-0.02,0 -0.03,0 -0.05,0.01l-0.03 0 0 0 -0.04 0 -0.03 0 0 0c-0.02,0 -0.03,0 -0.05,0l-0.02 0 0 0c-0.02,0 -0.04,0 -0.06,0.01l-0.01 0 0 0c-0.02,0 -0.05,0 -0.07,0.01l-0 0 0 0c-0.03,0 -0.05,0.01 -0.08,0.01l-0 0 0 0c-0.03,0 -0.06,0.01 -0.09,0.01l-0.01 0 0 0c-0.03,0 -0.06,0 -0.09,0.01l-0.02 0 0 0c-0.03,0 -0.05,0 -0.08,0.01l-0.04 0 0 0c-0.02,0 -0.05,0 -0.07,0l-0.06 0 0 0c-0.03,0 -0.06,0 -0.09,0l-0.03 0 0 0c-0.04,0 -0.08,0 -0.11,0.01l-0.01 0 0 0c-0.06,0 -0.12,0 -0.18,0.01l-0.06 0 0 0c-0.06,0 -0.12,0 -0.18,0.01l-0.18 0 0 0c-0.07,0 -0.13,0 -0.2,0l-3.86 0 -0.01 0.02 0.08 0 -2.39 8.19 -8.34 0 -0.49 0 -4.2 0 -5.56 0 -3.02 0 1.77 -5.64 3.36 0 5.22 0 4.2 0 0.47 -1.5 0 0 0 -0 0.24 -0.78 0 0 0 0 0.08 -0.26 0.37 -1.17 0 0 0 -0 0.24 -0.78 0.21 -0.66 0 0 0 -0 0.25 -0.78 0 0 0 -0 0.45 -1.44 0 0 0 -0 0.45 -1.44 0 0 0 0 0.24 -0.78 0.21 -0.66 0 0 0 0 0.25 -0.78 0 0 0 0 0.21 -0.66 0 0 0 -0 0.2 -0.63 0.05 -0.15 0 0 0 0 0.45 -1.44 0 0 0 -0 0.24 -0.78 0 0 0 0 0.45 -1.44 0 0 0 -0 0.13 -0.42 0.04 0z"/>
   <path class="fil0" d="M16.87 31.89l0 0 0 0 0.45 -1.44 0.27 -0.86 1.34 0 7.29 0 2.29 0c0.94,0 1.88,-0.12 2.81,-0.34l0 0c0.37,-0.09 0.74,-0.19 1.1,-0.31l0 0c0.64,-0.21 1.28,-0.47 1.89,-0.77l0 0 0 0c0.51,-0.25 1.01,-0.53 1.49,-0.83l0 0 0 -0c0.12,-0.08 0.24,-0.16 0.36,-0.24l0 0 0 0c0.13,-0.09 0.26,-0.18 0.39,-0.27l0 0 0 -0c0.14,-0.1 0.29,-0.21 0.43,-0.32l0 0 0 0c0.03,-0.03 0.07,-0.05 0.1,-0.08l0 0 0 0c0.01,-0.01 0.03,-0.02 0.04,-0.03 0.31,-0.24 0.61,-0.5 0.9,-0.77l0 0 0 0c0.09,-0.08 0.18,-0.17 0.27,-0.25l0 0 0 -0c0,-0 0.01,-0.01 0.01,-0.01l0 0 0 -0c0.11,-0.1 0.21,-0.21 0.32,-0.32l0 0 0 0c0.06,-0.06 0.12,-0.13 0.18,-0.19 0.03,-0.03 0.06,-0.07 0.09,-0.1l0 0 0 -0c0.3,-0.33 0.58,-0.66 0.85,-1.01l0 0 0 -0c0.18,-0.24 0.35,-0.48 0.51,-0.73l0 0 0 -0c0.05,-0.08 0.1,-0.16 0.15,-0.24l0 0 0 0c0.03,-0.04 0.05,-0.08 0.08,-0.13l0 0 0 -0c0.09,-0.14 0.17,-0.28 0.25,-0.43 0.16,-0.29 0.31,-0.59 0.44,-0.89l0 0 0 -0c0.06,-0.13 0.11,-0.27 0.17,-0.4l0 0 0 -0c0.01,-0.02 0.02,-0.04 0.02,-0.06l0 0 0 -0c0.01,-0.02 0.02,-0.04 0.02,-0.06l0 0 0 -0c0.01,-0.02 0.02,-0.04 0.02,-0.06l0 0 0 -0c0.01,-0.02 0.02,-0.04 0.02,-0.06l0 0 0 0c0.07,-0.19 0.13,-0.37 0.18,-0.56l0 0 0 -0c0.06,-0.2 0.11,-0.41 0.16,-0.62l0 0 0 -0c0.01,-0.06 0.03,-0.13 0.04,-0.19l0 0 0 -0c0.04,-0.2 0.07,-0.39 0.09,-0.59l0 0 0 -0c0.02,-0.13 0.03,-0.26 0.04,-0.39l0 0 0 -0c0.02,-0.27 0.03,-0.54 0.02,-0.81l0 -0.02 -0 0c-0,-0.11 -0.01,-0.22 -0.02,-0.34l0 -0 -0 0c-0.01,-0.14 -0.02,-0.28 -0.04,-0.43l0 0c-0.01,-0.06 -0.02,-0.11 -0.02,-0.17l0 -0 0 0c-0.01,-0.08 -0.02,-0.17 -0.04,-0.25l0 -0 -0 0c-0,-0.01 -0.01,-0.03 -0.01,-0.04l0 -0 -0 0c-0.07,-0.38 -0.17,-0.76 -0.3,-1.14l0 0 0 0c-0.05,-0.14 -0.1,-0.28 -0.16,-0.42l0 0 0 0c-0.1,-0.25 -0.22,-0.5 -0.35,-0.74l0 0 0 0c-0.21,-0.39 -0.45,-0.78 -0.74,-1.17 -1.61,-2.17 -4.3,-3.19 -7.06,-3.64l-0.01 -0.01c0.04,0.01 0.08,0.01 0.11,0.02l0 0 0 0c0.16,0.02 0.32,0.05 0.47,0.08l0 0 0 0c0.06,0.01 0.12,0.02 0.17,0.03l0 0 0 0c0.04,0.01 0.08,0.02 0.13,0.02l0 0 0 0c0.17,0.03 0.34,0.07 0.51,0.1l0 0 0 0c0.09,0.02 0.19,0.04 0.28,0.06l0 0 0 0c0.04,0.01 0.09,0.02 0.13,0.03l0 0 0 0c0.19,0.04 0.37,0.09 0.56,0.14l0 0 0 0c0.06,0.02 0.11,0.03 0.17,0.05l0 0 0 0 0.06 0.02 0 0 0 0c0.02,0.01 0.04,0.01 0.05,0.02l0 0 0 0c0.02,0.01 0.04,0.01 0.05,0.02l0 0 0 0c0.08,0.02 0.16,0.05 0.24,0.07l0 0 0 0c0.03,0.01 0.07,0.02 0.1,0.03l0 0 0 0c0.06,0.02 0.12,0.04 0.17,0.06l0 0 0 0 0.02 0.01 0 0 0 0 0.02 0.01 0 0 0 0 0.02 0.01 0 0 0 0 0.02 0.01 0 0 0 0c0.05,0.02 0.09,0.03 0.14,0.05l0 0 0 0c0.05,0.02 0.11,0.04 0.16,0.06l0 0 0 0c0.09,0.03 0.17,0.06 0.26,0.09l0 0 0 0c0.02,0.01 0.04,0.02 0.06,0.02l0 0 0 0c0.03,0.01 0.07,0.03 0.1,0.04l0 0 0 0 0.04 0.02 0 0 0 0c0.11,0.04 0.22,0.09 0.33,0.13l0 0c0.02,0.01 0.04,0.02 0.06,0.02l0 0 0 0c0.02,0.01 0.04,0.02 0.05,0.02l0 0 0 0c0.02,0.01 0.04,0.02 0.05,0.02l0 0 0 0c0.02,0.01 0.05,0.02 0.07,0.03l0 0 0 0c0.02,0.01 0.05,0.02 0.07,0.03l0 0 0 0c0.03,0.01 0.06,0.03 0.09,0.04l0 0 0 0c0.04,0.02 0.08,0.04 0.12,0.06l0 0 0 0c0.07,0.03 0.14,0.07 0.21,0.1l0 0 0 0 0.05 0.02 0 0 0 0 0.02 0.01 0 0 0 0 0.02 0.01 0 0 0 0c0.11,0.06 0.22,0.11 0.33,0.17l0 0 0 0c0.03,0.02 0.06,0.03 0.09,0.05l0 0 0 0c0.04,0.02 0.08,0.05 0.13,0.07l0 0 0 0c0.02,0.01 0.04,0.02 0.05,0.03l0 0 0 0 0.04 0.02 0 0 0 0c0.02,0.01 0.04,0.02 0.05,0.03l0 0 0 0c0.04,0.02 0.08,0.05 0.12,0.07l0 0 0 0c0.02,0.01 0.04,0.03 0.06,0.04l0 0 0 0c0.01,0.01 0.02,0.02 0.04,0.02l0 0 0 0c0.02,0.01 0.04,0.03 0.06,0.04l0 0 0 0c0.04,0.02 0.07,0.05 0.11,0.07l0 0 0 0 0.02 0.02 0 0 0 0 0.02 0.01 0 0 0 0c0.06,0.04 0.11,0.07 0.16,0.11l0 0 0 0c0.03,0.02 0.05,0.04 0.08,0.05l0 0 0 0 0.02 0.02 0 0 0 0c0.02,0.01 0.04,0.03 0.05,0.04l0 0 0 0c0.06,0.04 0.12,0.08 0.17,0.13l0 0 0 0 0.03 0.02 0 0 0 0c0.01,0.01 0.02,0.02 0.03,0.02l0 0 0 0c0.03,0.03 0.07,0.05 0.1,0.08l0 0 0 0c0.01,0.01 0.03,0.02 0.04,0.03l0 0 0 0c0.01,0.01 0.03,0.02 0.04,0.03l0 0 0 0c0.01,0.01 0.03,0.02 0.04,0.03l0 0 0 0c0.01,0.01 0.03,0.02 0.04,0.03l0 0 0 0c0.03,0.02 0.06,0.05 0.09,0.07l0 0 0 0c0.02,0.01 0.03,0.03 0.05,0.04l0 0 0 0 0.01 0.01 0 0 0 0c0.02,0.01 0.03,0.03 0.05,0.04l0 0 0 0c0.04,0.04 0.08,0.07 0.13,0.11l0 0 0 0c0.03,0.02 0.05,0.05 0.08,0.07l0 0 0 0 0.01 0.01 0 0 0 0c0.16,0.15 0.32,0.3 0.47,0.47l0 0 0 0 0.01 0.01 0 0 0 0 0.01 0.01 0 0 0 0c0.03,0.03 0.06,0.07 0.09,0.1l0 0 0 0c0.02,0.02 0.04,0.05 0.06,0.07l0 0 0 0 0.01 0.01 0 0 0 0c0.02,0.02 0.04,0.04 0.06,0.06l0 0 0 0c0.03,0.03 0.06,0.07 0.09,0.1l0 0 0 0c0.01,0.02 0.03,0.03 0.04,0.05l0 0 0 0 0.01 0.01 0 0 0 0c0.01,0.01 0.02,0.03 0.03,0.04l0 0 0 0c0.02,0.03 0.05,0.06 0.07,0.09l0 0 0 0c0.02,0.02 0.04,0.05 0.06,0.07l0 0 0 0c0.01,0.01 0.02,0.02 0.02,0.03l0 0 0 0c0.01,0.01 0.02,0.03 0.03,0.04l0 0 0 0c0.01,0.01 0.02,0.02 0.02,0.03l0 0 0 0 0.02 0.03 0 0 0 0c0.01,0.01 0.01,0.02 0.02,0.03 0.01,0.02 0.03,0.04 0.04,0.06l0 0 0 0c0.01,0.01 0.02,0.02 0.02,0.03l0 0 0 0 0.02 0.02 0 0 0 0c0,0.01 0.01,0.01 0.01,0.02l0 0 0 0 0.01 0.01 0 0 0 0 0.01 0.01 0 0.01 0 0 0 0.01 0 0 0 0 0.01 0.02 0 0 0 0 0.01 0.01 0 0 0 0 0.01 0.01 0 0 0 0 0 0.01 0 0 0 0 0.01 0.01 0 0.01 0 0 0 0.01 0 0 0 0 0.01 0.02 0 0 0 0 0.01 0.02 0 0 0 0c0,0.01 0.01,0.01 0.01,0.02l0 0 0 0c0,0.01 0.01,0.01 0.01,0.02l0 0 0 0c0.03,0.04 0.05,0.08 0.08,0.12l0 0 0 0 0.02 0.02 0 0 0 0c0.01,0.01 0.02,0.02 0.02,0.04l0 0 0 0c0,0.01 0.01,0.01 0.01,0.02l0 0 0 0 0.01 0.01 0 0 0 0 0.01 0.02 0 0 0 0 0.01 0.01 0 0.01 0 0 0 0.01 0 0 0 0 0.01 0.01 0 0 0 0 0.01 0.02 0 0 0 0 0.01 0.01 0 0 0 0 0.01 0.02 0 0 0 0 0.01 0.01 0 0 0 0 0.01 0.02 0 0 0 0 0.01 0.01 0 0 0 0 0.01 0.02 0 0 0 0c0.01,0.01 0.02,0.03 0.02,0.04l0 0 0 0c0.02,0.04 0.04,0.07 0.06,0.11l0 0 0 0 0.01 0.01 0 0 0 0 0.01 0.01 0 0 0 0 0.01 0.01 0 0.01 0 0c0.01,0.01 0.01,0.03 0.02,0.04l0 0 0 0 0.01 0.01 0 0 0 0 0.01 0.01 0 0 0 0 0.01 0.01 0 0.01 0 0 0.01 0.01 0 0.01 0 0c0,0.01 0.01,0.02 0.01,0.02l0 0 0 0 0.01 0.01 0 0 0 0 0.01 0.01 0 0 0 0 0.01 0.01 0 0 0 0 0.01 0.01 0 0 0 0 0.01 0.01 0 0 0 0 0.01 0.01 0 0.01 0 0c0.03,0.07 0.07,0.13 0.1,0.2l0 0.01 0 0 0.01 0.01 0 0 0 0 0.01 0.01 0 0 0 0 0.01 0.01 0 0 0 0 0.01 0.01 0 0 0 0 0.01 0.01 0 0 0 0 0.01 0.02 0 0 0 0 0.01 0.02 0 0.01 0 0 0 0.01 0 0.01 0 0 0 0.01 0 0.01 0 0 0.01 0.01 0 0 0 0 0.01 0.01 0 0 0 0 0.01 0.01 0 0 0 0c0.01,0.01 0.01,0.02 0.02,0.03l0 0.01 0 0 0.01 0.01 0 0 0 0 0.01 0.01 0 0 0 0c0.02,0.04 0.04,0.08 0.05,0.12l0 0 0 0 0.02 0.04 0 0 0 0 0.01 0.01 0 0 0 0 0.01 0.02 0 0.01 0 0 0.01 0.01 0 0 0 0 0.01 0.04 0 0 0 0 0.01 0.02 0 0 0 0 0.01 0.02 0 0.01 0 0 0.01 0.01 0 0 0 0 0.01 0.02 0 0.01 0 0 0.01 0.01 0 0 0 0 0.01 0.02 0 0 0 0 0.01 0.02 0 0 0 0 0.01 0.02 0 0 0 0c0,0.01 0.01,0.02 0.01,0.04l0 0 0 0 0.01 0.04 0 0 0 0c0.01,0.02 0.02,0.04 0.02,0.06l0 0 0 0c0.01,0.03 0.02,0.06 0.03,0.09l0 0 0 0 0.01 0.02 0 0 0 0 0.01 0.02 0 0 0 0 0.01 0.02 0 0.01 0 0 0.01 0.02 0 0.01 0 0 0.01 0.02 0 0.01 0 0 0.01 0.01 0 0 0 0 0.01 0.02 0 0 0 0 0.01 0.02 0 0 0 0 0.01 0.02 0 0 0 0 0.01 0.02 0 0 0 0 0.01 0.02 0 0 0 0 0.01 0.02 0 0 0 0 0.01 0.02 0 0 0 0 0.01 0.02 0 0 0 0 0.01 0.02 0 0 0 0c0.01,0.03 0.02,0.07 0.03,0.1l0 0 0 0 0.01 0.02 0 0 0 0 0.01 0.03 0 0.01 0 0 0.01 0.02 0 0 0 0 0.01 0.02 0 0.01 0 0 0.01 0.02 0 0.01 0 0 0.01 0.02 0 0 0 0c0,0.01 0,0.02 0.01,0.02l0 0.01 0 0 0.01 0.02 0 0 0 0 0.01 0.02 0 0.01 0 0 0.01 0.02 0 0 0 0 0.01 0.03 0 0.01 0 0 0.01 0.02 0 0 0 0c0.01,0.04 0.02,0.08 0.03,0.12l0 0 0 0 0.01 0.03 0 0 0 0 0.01 0.03 0 0 0 0 0.01 0.03 0 0 0 0 0.01 0.03 0 0 0 0 0.01 0.03 0 0 0 0 0.01 0.03 0 0.01 0 0 0.01 0.02 0 0.01 0 0 0.01 0.02 0 0.01 0 0 0.01 0.03 0 0.01 0 0 0.01 0.03 0 0 0 0 0.01 0.03 0 0 0 0c0.01,0.06 0.03,0.12 0.04,0.18l0 0 0 0 0.01 0.04 0 0 0 0 0.01 0.04 0 0.01 0 0 0.01 0.03 0 0.01 0 0 0.01 0.03 0 0.01 0 0 0.01 0.03 0 0.01 0 0 0.01 0.03 0 0.01 0 0 0.01 0.03 0 0.01 0 0 0.01 0.04 0 0 0 0c0.01,0.04 0.02,0.09 0.02,0.13l0 0 0 0c0,0.02 0.01,0.03 0.01,0.05l0 0.01 0 0c0,0.01 0,0.03 0.01,0.04l0 0.01 0 0 0.01 0.04 0 0.01 0 0 0.01 0.04 0 0.01 0 0 0.01 0.04 0 0.01 0 0c0,0.02 0,0.03 0.01,0.05l0 0.01 0 0c0.01,0.05 0.02,0.11 0.02,0.16l0 0 0 0c0,0.02 0.01,0.04 0.01,0.06l0 0.01 0 0c0,0.02 0,0.03 0.01,0.05l0 0.01 0 0c0,0.02 0,0.04 0.01,0.05l0 0.02 0 0c0,0.02 0,0.04 0.01,0.05l0 0.01 0 0c0,0.02 0,0.04 0.01,0.06l0 0.01 0 0c0,0.02 0,0.04 0.01,0.07l0 0 0 0c0,0.03 0.01,0.05 0.01,0.08l0 0 0 0c0,0.03 0.01,0.06 0.01,0.08l0 0.02 0 0c0,0.02 0,0.05 0.01,0.07l0 0.02 0 0c0,0.03 0,0.05 0.01,0.08l0 0.02 0 0c0,0.03 0,0.06 0.01,0.09l0 0.01 0 0c0,0.04 0.01,0.08 0.01,0.12l0 0.02 0 0c0,0.04 0,0.09 0.01,0.13l0 0.04 0 0c0,0.05 0,0.1 0.01,0.14l0 0.02 0 0c0,0.08 0.01,0.17 0.01,0.25l0 0.1 0 0c0,0.17 0,0.34 -0,0.51l-0 0 0 0.09c-0,0.08 -0,0.17 -0.01,0.25l-0 0 0 0.03c-0,0.05 -0,0.11 -0.01,0.16l-0 0 0 0.03c-0,0.05 -0,0.1 -0.01,0.16l-0 0 0 0 -0 0.01c-0.01,0.03 -0.02,0.06 -0.02,0.08l-0 0 0 0c-0,0.01 -0,0.02 -0.01,0.03l-0 0 0 0c-0,0.02 -0.01,0.04 -0.01,0.05l-0 0 0 0.01 -0.01 0.03 -0 0 0 0 -0.01 0.03 -0 0 0 0c-0,0.01 -0,0.01 -0.01,0.02l-0 0 0 0.01c-0,0.01 -0,0.02 -0.01,0.02l-0 0 0 0.01c-0,0.01 -0,0.01 -0,0.02l-0 0 0 0.01 -0 0.02 -0 0 0 0.01c-0,0.01 -0,0.01 -0.01,0.02l-0 0 0 0.01 -0.01 0.02 -0 0 0 0.01c-0,0.01 -0,0.01 -0.01,0.02l-0 0 0 0.01 -0.01 0.03 -0 0 0 0 -0.01 0.02 -0 0 0 0.01 -0.01 0.03 -0 0 0 0 -0.01 0.02 -0 0 0 0 -0.01 0.03 -0 0 0 0c-0.01,0.02 -0.01,0.04 -0.02,0.05l0 0 0 0c-0.01,0.03 -0.02,0.05 -0.02,0.08l-0 0 0 0c-0.01,0.04 -0.03,0.08 -0.04,0.13l-0 0 0 0 -0.01 0.02 -0 0 0 0 -0.01 0.02 -0 0 0 0.01 -0.01 0.02 -0 0 0 0.01 -0.01 0.02 -0 0 0 0.01 -0 0.02 -0 0 0 0.01c-0,0.01 -0,0.01 -0.01,0.02l-0 0 0 0c-0,0.01 -0,0.01 -0.01,0.02l-0 0 0 0.01c-0,0.01 -0,0.01 -0.01,0.02l-0 0 0 0.01c-0,0.01 -0,0.01 -0.01,0.02l-0 0 0 0.01 -0.01 0.02 -0 0 0 0.01 -0.01 0.02 -0 0 0 0.01 -0.01 0.02 -0 0 0 0.01 -0.01 0.02 -0 0 0 0.01 -0.01 0.02 -0 0 0 0.01 -0.01 0.02 -0 0 0 0c-0.02,0.06 -0.04,0.12 -0.06,0.18l-0 0 0 0c-0.01,0.03 -0.02,0.06 -0.03,0.09l-0 0 0 0 -0.01 0.02 -0 0 0 0 -0.01 0.04 -0 0 0 0.01 -0.01 0.02 -0 0 0 0 -0.01 0.02 -0 0 0 0 -0 0.01 -0 0 0 0.01 -0.01 0.02 -0 0 0 0.01c-0,0.01 -0,0.01 -0.01,0.02l-0 0 0 0 -0.01 0.02 -0 0 0 0 -0 0.01 -0 0 0 0.01 -0.01 0.02 -0 0 0 0c-0,0.01 -0,0.01 -0.01,0.02l-0 0 0 0 -0.01 0.01 -0 0 0 0.01 -0.01 0.02 -0 0 0 0 -0.01 0.02 -0 0 0 0 -0.01 0.02 -0 0 0 0.01 -0.01 0.02 -0 0 0 0c-0.01,0.02 -0.02,0.04 -0.02,0.06l-0 0 0 0c-0.01,0.02 -0.02,0.04 -0.02,0.06l0 0 0 0c-0.01,0.03 -0.02,0.05 -0.03,0.08l-0 0 0 0c-0.01,0.03 -0.03,0.06 -0.04,0.09l-0 0 0 0 -0.01 0.04 -0 0 0 0 -0.01 0.01 -0 0 0 0.01 -0.01 0.02 -0 0 0 0 -0.01 0.01 -0 0 0 0.01c-0,0.01 -0,0.01 -0.01,0.02l-0 0 0 0 -0.01 0.01 -0 0 0 0 -0 0.01 -0 0 0 0.01c-0,0.01 -0,0.01 -0.01,0.02l-0 0 0 0 -0.01 0.01 -0 0 0 0.01c-0,0.01 -0.01,0.01 -0.01,0.02l-0 0 0 0c-0,0 -0,0.01 -0.01,0.01l-0 0 0 0 -0.01 0.01 -0 0 0 0.01 -0.01 0.02 -0 0 0 0 -0.01 0.02 -0 0 0 0 -0.02 0.04 -0 0 0 0 -0.01 0.02 -0 0 0 0 -0.02 0.04 0 0 0 0 -0.01 0.02 -0 0 0 0c-0.03,0.07 -0.06,0.13 -0.09,0.2l-0 0 0 0 -0.01 0.02 -0 0 0 0 -0.01 0.01 -0 0 0 0 -0.02 0.05 -0 0 0 0 -0.01 0.02 -0 0 0 0 -0.01 0.01 -0 0 0 0 -0.01 0.01 -0 0 0 0 -0 0.01 -0 0 0 0.01c-0,0.01 -0.01,0.01 -0.01,0.02l-0 0 0 0c-0,0.01 -0,0.01 -0.01,0.02l-0 0 0 0c-0,0 -0,0.01 -0.01,0.01l-0 0 0 0 -0.01 0.01 -0 0 0 0 -0.01 0.01 -0 0 0 0 -0.01 0.01 -0 0 0 0.01 -0.01 0.01 -0 0 0 0.01 -0 0.01 -0 0 0 0.01c-0.01,0.02 -0.02,0.03 -0.02,0.05l0 0 0 0 -0.01 0.02 -0 0 0 0 -0.01 0.02 -0 0 0 0 -0.01 0.01 -0 0 0 0 -0.01 0.01 -0 0 0 0c-0.05,0.09 -0.09,0.19 -0.14,0.28l-0 0 0 0 -0.01 0.01 -0 0 0 0 -0.01 0.01 -0 0 0 0 -0.01 0.01 -0 0 0 0 -0.01 0.01 -0 0 0 0 -0.01 0.01 -0 0 0 0 -0.01 0.01 -0 0 0 0 -0.01 0.01 -0 0 0 0 -0.01 0.01 -0 0 0 0 -0.01 0.01 -0 0 0 0c-0,0 -0.01,0.01 -0.01,0.01l-0 0 0 0c-0.01,0.01 -0.01,0.03 -0.02,0.04l-0 0 0 0.01 -0.01 0.01 -0 0 0 0 -0.01 0.01 -0 0 0 0 -0.01 0.01 -0 0 0 0 -0.01 0.01 -0 0 0 0 -0.01 0.01 -0 0 0 0c-0.02,0.03 -0.04,0.07 -0.05,0.1l-0 0 0 0 -0.01 0.01 -0 0 0 0c-0.02,0.03 -0.03,0.06 -0.05,0.09l-0 0 0 0c-0.01,0.02 -0.02,0.04 -0.03,0.06l-0 0 0 0c-0.01,0.02 -0.02,0.04 -0.03,0.05l-0 0 0 0 -0.01 0.01 -0 0 0 0c-0.01,0.01 -0.01,0.03 -0.02,0.04l-0 0 0 0 -0.01 0.01 -0 0 0 0c-0,0.01 -0.01,0.01 -0.01,0.02l-0 0 0 0.01 -0.01 0.01 -0 0 0 0 -0.01 0.01 -0 0 0 0c-0,0 -0,0.01 -0.01,0.01l-0 0 0 0 -0 0.01 -0 0 0 0.01 -0.01 0.01 -0 0 0 0 -0.01 0.01 -0 0 0 0c-0,0.01 -0.01,0.01 -0.01,0.02l-0 0 0 0 -0.01 0.01 -0 0 0 0 -0.01 0.01 0 0 0 0 -0.01 0.02 -0 0 0 0 -0.01 0.01 -0 0 0 0 -0.02 0.04 -0 0 0 0c-0.02,0.03 -0.04,0.06 -0.05,0.09l-0 0 0 0c-0.03,0.05 -0.06,0.09 -0.09,0.14l-0 0 0 0 -0.01 0.02 -0 0 0 0 -0.02 0.04 -0 0 0 0 -0.01 0.02 -0 0 0 0 -0.01 0.01 -0 0 0 0c-0,0.01 -0.01,0.02 -0.01,0.02l-0 0 0 0c-0,0.01 -0.01,0.01 -0.01,0.02l-0 0 0 0 -0.01 0.01 -0 0 0 0 -0 0.01 -0 0 0 0.01 -0.01 0.01 -0 0 0 0c-0,0.01 -0.01,0.01 -0.01,0.02l-0 0 0 0c-0,0.01 -0.01,0.01 -0.01,0.02l-0 0 0 0 -0.01 0.01 -0 0 0 0 -0.02 0.02 -0 0 0 0 -0.01 0.02 -0 0 0 0 -0.01 0.02 -0 0 0 0c-0.01,0.01 -0.02,0.02 -0.02,0.04l0 0 0 0 -0.02 0.02 -0 0 0 0c-0.04,0.06 -0.07,0.11 -0.11,0.17l-0 0 0 0 -0.01 0.02 -0 0 0 0 -0.01 0.02 -0 0 0 0 -0.02 0.02 -0 0 0 0 -0.02 0.02 -0 0 0 0 -0.02 0.02 -0 0 0 0 -0.01 0.01 -0 0 0 0 -0.01 0.01 -0 0 0 0 -0.01 0.01 -0 0 0 0c-0,0.01 -0.01,0.01 -0.01,0.02l-0 0 0 0 -0.01 0.02 -0 0 0 0c-0,0.01 -0.01,0.01 -0.01,0.02l-0 0 0 0 -0 0.01 -0 0 0 0.01 -0.01 0.01 -0 0 0 0 -0.01 0.01 -0 0 0 0 -0.01 0.02 -0 0 0 0 -0.01 0.02 -0 0 0 0 -0.04 0.05 -0 0 0 0 -0.02 0.02 -0 0 0 0c-0.05,0.08 -0.11,0.15 -0.17,0.23l-0 0 0 0 -0.02 0.03 -0 0 0 0 -0.01 0.01 -0 0 0 0 -0.01 0.02 -0 0 0 0 -0 0.01 -0 0 0 0c-0,0.01 -0.01,0.01 -0.01,0.02l-0 0 0 0 -0 0.01 -0 0 0 0.01c-0,0.01 -0.01,0.01 -0.01,0.02l-0 0 0 0 -0 0.01 -0 0 0 0.01c-0,0.01 -0.01,0.01 -0.01,0.02l-0 0 0 0 -0 0.01 -0 0 0 0c-0,0.01 -0.01,0.01 -0.01,0.02l-0 0 0 0 -0.01 0.01 -0 0 0 0 -0.02 0.02 -0 0 0 0 -0.01 0.01 -0 0 0 0 -0.02 0.03 -0 0 0 0 -0.02 0.03 -0 0 0 0c-0.01,0.01 -0.02,0.02 -0.02,0.03l-0 0 0 0c-0.01,0.01 -0.02,0.02 -0.02,0.03l0 0 0 0c-0.04,0.05 -0.08,0.11 -0.12,0.16l-0 0 0 0 -0.03 0.04 -0 0 0 0c-0.01,0.01 -0.02,0.03 -0.03,0.04l-0 0 0 0 -0.01 0.01 -0 0 0 0c-0.01,0.01 -0.02,0.02 -0.02,0.03l-0 0 0 0 -0.01 0.01 -0 0 0 0c-0.01,0.01 -0.02,0.02 -0.02,0.03l-0 0 0 0 -0.01 0.01 -0 0 0 0 -0 0.01 -0 0 0 0c-0.01,0.01 -0.02,0.02 -0.02,0.03l-0 0 0 0 -0.01 0.01 -0 0 0 0c-0.01,0.01 -0.02,0.02 -0.03,0.04l-0 0 0 0 -0.01 0.01 -0 0 0 0 -0.03 0.04 -0 0 0 0c-0.01,0.02 -0.03,0.03 -0.04,0.05l-0 0 0 0c-0.03,0.03 -0.06,0.07 -0.09,0.1l-0 0 0 0c-0.02,0.02 -0.04,0.04 -0.05,0.06l-0 0 0 0 -0.01 0.01 -0 0 0 0c-0.02,0.02 -0.03,0.04 -0.05,0.05l-0 0 0 0 -0.01 0.01 -0 0 0 0 -0.01 0.01 -0 0 0 0c-0.01,0.01 -0.02,0.02 -0.03,0.04l-0 0 0 0 -0.01 0.01 -0 0 0 0 -0.01 0.01 -0 0 0 0 -0 0.01 -0 0 0 0 -0 0 -0 0 0 0c-0.01,0.01 -0.02,0.02 -0.03,0.03l-0 0 0 0 -0.01 0.01 -0 0 0 0 -0.01 0.01 -0 0 0 0 -0.01 0.01 -0 0 0 0 -0 0.01 -0 0 0 0c-0.02,0.02 -0.03,0.03 -0.05,0.05l-0 0 0 0 -0.01 0.01 -0 0 0 0 -0.01 0.01 -0 0 0 0c-0.02,0.02 -0.04,0.05 -0.06,0.07l-0 0 0 0c-0.03,0.04 -0.07,0.07 -0.1,0.11l-0 0 0 0 -0.01 0.01 -0 0 0 0 -0.01 0.01 -0 0 0 0 -0.01 0.01 -0 0 0 0c-0.04,0.04 -0.07,0.08 -0.11,0.12l-0 0 0 0 -0.01 0.01 -0 0 0 0 -0.01 0.01 -0 0 0 0 -0.01 0.01 -0 0 0 0 -0.01 0.01 -0 0 0 0 -0.01 0.01 -0 0 0 0 -0.01 0.01 -0 0 0 0 -0.01 0.01 -0 0 0 0 -0.01 0.01 -0 0 0 0 -0.01 0.01 -0 0 0 0 -0.01 0.01 -0 0 0 0 -0 0 -0 0 0 0 -0 0 -0 0 0 0 -0 0 -0 0 0 0c-0.1,0.1 -0.2,0.2 -0.31,0.3l-0 0 0 0 -0.01 0.01 -0 0 0 0 -0.01 0.01 -0 0 0 0 -0.01 0.01 -0 0 0 0 -0.01 0.01 -0 0 0 0 -0.01 0.01 -0 0 0 0 -0.01 0.01 -0 0 0 0 -0.01 0.01 -0 0 0 0 -0.01 0.01 -0 0 0 0 -0.01 0.01 -0 0 0 0 -0.01 0.01 -0 0 0 0 -0.01 0.01 -0 0 0 0 -0.01 0.01 -0 0 0 0 -0.01 0.01 -0 0 0 0c-0.03,0.03 -0.06,0.05 -0.08,0.08l-0 0 0 0 -0.01 0.01 -0 0 0 0 -0.01 0.01 -0 0 0 0 -0.01 0.01 -0 0 0 0 -0.01 0.01 -0 0 0 0 -0.01 0.01 -0 0 0 0c-0.07,0.06 -0.13,0.12 -0.2,0.18l-0 0 0 0c-0.02,0.02 -0.04,0.04 -0.06,0.05l-0 0 0 0 -0.01 0.01 -0 0 0 0 -0.01 0.01 -0 0 0 0 -0.01 0.01 -0 0 0 0c-0.01,0.01 -0.03,0.03 -0.04,0.04l-0 0 0 0 -0.01 0 -0 0 0 0 -0.01 0.01 -0 0 0 0 -0.01 0.01 -0 0 0 0 -0.01 0.01 0 0 0 0c-0.01,0.01 -0.02,0.02 -0.03,0.02l-0 0 0 0 -0 0 -0 0 0 0 -0.01 0.01 -0 0 0 0 -0.01 0.01 -0 0 0 0c-0.01,0.01 -0.03,0.03 -0.05,0.04l-0 0 0 0 -0.01 0.01 -0 0 0 0c-0.02,0.02 -0.04,0.03 -0.05,0.05l-0 0 0 0 -0.01 0.01 -0 0 0 0c-0.04,0.03 -0.07,0.06 -0.11,0.09l-0 0 0 0c-0.02,0.01 -0.03,0.03 -0.05,0.04l0 0 0 0c-0.01,0.01 -0.03,0.02 -0.04,0.03l-0 0 0 0 -0.04 0.03 -0 0 0 0 -0.01 0.01 -0 0 0 0c-0.01,0.01 -0.02,0.02 -0.04,0.03l-0 0 0 0 -0.01 0.01 -0 0 0 0c-0.01,0.01 -0.02,0.02 -0.03,0.02l-0 0 0 0 -0.01 0 -0 0 0 0 -0.01 0.01 -0 0 0 0c-0.01,0.01 -0.01,0.01 -0.02,0.02l-0 0 0 0 -0.01 0 -0 0 0 0 -0.01 0.01 -0 0 0 0c-0.01,0.01 -0.02,0.02 -0.03,0.02l-0 0 0 0 -0.01 0.01 -0 0 0 0 -0.03 0.02 -0 0 0 0 -0.01 0.01 -0 0 0 0 -0.04 0.03 -0 0 0 0c-0.01,0.01 -0.03,0.02 -0.04,0.03l-0 0 0 0c-0.01,0.01 -0.03,0.02 -0.04,0.03l-0 0 0 0c-0.03,0.03 -0.07,0.05 -0.1,0.08l-0 0 0 0c-0.01,0.01 -0.02,0.02 -0.03,0.02l-0 0 0 0 -0.03 0.02 -0 0 0 0 -0.03 0.02 -0 0 0 0 -0.01 0.01 0 0 -0.02 0.02 -0 0 0 0 -0.01 0.01 -0 0 0 0c-0.01,0.01 -0.01,0.01 -0.02,0.02l-0 0 0 0 -0.01 0.01 -0 0 0 0c-0.01,0.01 -0.01,0.01 -0.02,0.02l-0 0 0 0 -0.01 0 -0 0 0 0c-0.01,0 -0.01,0.01 -0.02,0.01l-0 0 0 0 -0.01 0.01 -0 0 0 0c-0.01,0.01 -0.01,0.01 -0.02,0.02l-0 0 0 0 -0.01 0.01 -0 0 0 0 -0.02 0.02 -0 0 0 0 -0.03 0.02 -0 0 0 0 -0.03 0.02 -0 0 0 0c-0.01,0.01 -0.02,0.02 -0.03,0.02l0 0 0 0c-0.05,0.04 -0.11,0.08 -0.16,0.12l-0 0 0 0 -0.02 0.02 -0 0 0 0 -0.03 0.02 0 0 0 0 -0.02 0.02 -0 0 0 0 -0.02 0.01 -0 0 0 0c-0.01,0 -0.01,0.01 -0.02,0.01l-0 0 0 0 -0.01 0.01 -0 0 0 0 -0.01 0.01 -0 0 0 0 -0.01 0 -0 0 0 0c-0.01,0 -0.01,0.01 -0.02,0.01l-0 0 0 0 -0.02 0.01 -0 0 0 0c-0.01,0 -0.01,0.01 -0.02,0.01l-0 0 0 0c-0.01,0 -0.01,0.01 -0.02,0.01l-0 0 0 0 -0.01 0.01 -0 0 0 0 -0.01 0.01 -0 0 0 0 -0.01 0.01 -0 0 0 0 -0.02 0.02 -0 0 0 0 -0.02 0.02 -0 0 0 0 -0.02 0.02 -0 0 0 0 -0.02 0.02 -0 0 0 0c-0.01,0 -0.01,0.01 -0.02,0.01l-0 0 0 0c-0.04,0.03 -0.08,0.05 -0.12,0.08l-0 0 0 0c-0.02,0.01 -0.04,0.03 -0.06,0.04l-0 0 0 0 -0.02 0.01 -0 0 0 0 -0.02 0.01 -0 0 0 0c-0.01,0.01 -0.02,0.02 -0.04,0.02l-0 0 0 0 -0.02 0.01 -0 0 0 0c-0.01,0 -0.01,0.01 -0.02,0.01l-0 0 0 0 -0.01 0.01 -0.01 0 0 0 -0.01 0 -0 0 0 0 -0.01 0.01 -0 0 0 0c-0.01,0 -0.01,0.01 -0.02,0.01l-0 0 0 0 -0.01 0.01 -0.01 0 0 0 -0.01 0 -0 0 0 0 -0.01 0.01 -0 0 0 0c-0.01,0 -0.01,0.01 -0.02,0.01l-0 0 0 0c-0.01,0.01 -0.02,0.02 -0.04,0.02l-0 0 0 0 -0.02 0.01 -0 0 0 0c-0.01,0.01 -0.03,0.02 -0.04,0.02l-0 0 0 0c-0.02,0.01 -0.04,0.03 -0.06,0.04l-0 0 0 0c-0.03,0.02 -0.05,0.03 -0.08,0.05l-0 0 0 0c-0.02,0.01 -0.04,0.02 -0.05,0.03l-0 0 0 0c-0.01,0.01 -0.03,0.01 -0.04,0.02l-0 0 0 0 -0.01 0.01 -0 0 0 0 -0.02 0.01 -0 0 0 0 -0.01 0.01 -0 0 0 0c-0.01,0.01 -0.02,0.01 -0.04,0.02l-0 0 0 0 -0.01 0.01 -0 0 0 0c-0.01,0 -0.02,0.01 -0.02,0.01l-0 0 0 0 -0.01 0.01 -0 0 0 0 -0.01 0.01 -0.01 0 0 0c-0.01,0 -0.02,0.01 -0.02,0.01l-0 0 0 0 -0.01 0.01 -0 0 0 0 -0.01 0.01 -0 0 0 0c-0.01,0.01 -0.03,0.01 -0.04,0.02l-0 0 0 0 -0.01 0.01 -0 0 0 0 -0.04 0.02 -0 0 0 0 -0.01 0.01 -0 0 0 0c-0.08,0.04 -0.15,0.08 -0.23,0.13l-0 0 0 0 -0.01 0.01 -0 0 0 0 -0.01 0.01 -0 0 0 0 -0.01 0.01 -0 0 0 0c-0.02,0.01 -0.05,0.03 -0.07,0.04l-0 0 0 0 -0.01 0.01 -0 0 0 0 -0.01 0.01 -0 0 0 0 -0.01 0.01 -0 0 0 0 -0.01 0.01 -0.01 0 0 0 -0.01 0.01 -0.01 0 0 0 -0.01 0.01 -0.01 0 0 0 -0.01 0 -0.01 0 0 0c-0.04,0.02 -0.08,0.04 -0.12,0.06l-0 0 0 0 -0.02 0.01 -0 0 0 0 -0.02 0.01 -0 0 0 0 -0.01 0.01 -0 0 0 0 -0.01 0.01 -0 0 0 0c-0.04,0.02 -0.07,0.04 -0.11,0.05l-0 0 0 0 -0.02 0.01 -0 0 0 0 -0.02 0.01 0 0 0 0c-0.04,0.02 -0.08,0.04 -0.11,0.06l-0 0 0 0 -0.01 0.01 -0 0 0 0 -0.01 0.01 -0 0 0 0 -0.01 0.01 -0 0 0 0 -0.01 0.01 -0 0 0 0 -0.01 0.01 -0 0 0 0 -0.01 0.01 -0 0 0 0c-0.01,0 -0.01,0.01 -0.02,0.01l-0 0 0 0c-0.01,0 -0.01,0.01 -0.02,0.01l-0.01 0 0 0 -0.01 0 -0.01 0 0 0 -0.01 0.01 -0 0 0 0 -0.01 0.01 -0 0 0 0 -0.01 0.01 -0 0 0 0c-0.02,0.01 -0.05,0.02 -0.07,0.03l-0 0 0 0 -0.01 0.01 -0 0 0 0 -0.02 0.01 -0 0 0 0c-0.03,0.02 -0.07,0.03 -0.1,0.05l0 0 0 0c-0.04,0.02 -0.07,0.03 -0.11,0.05l-0 0 0 0c-0.02,0.01 -0.03,0.02 -0.05,0.02l-0 0 0 0 -0.02 0.01 -0 0 0 0 -0.04 0.02 -0 0 0 0 -0.01 0.01 -0 0 0 0 -0.02 0.01 -0.01 0 0 0 -0.01 0 -0 0 0 0 -0.01 0.01 -0 0 0 0c-0.01,0 -0.01,0 -0.02,0.01l-0.01 0 0 0 -0.01 0 -0.01 0 0 0 -0.01 0.01 -0 0 0 0c-0.01,0 -0.01,0 -0.02,0.01l-0.01 0 0 0 -0.01 0.01 -0 0 0 0c-0.01,0 -0.02,0.01 -0.04,0.01l-0 0 0 0 -0.02 0.01 -0 0 0 0 -0.02 0.01 -0 0 0 0 -0.01 0.01 -0 0 0 0 -0.04 0.02 -0 0 0 0c-0.03,0.01 -0.06,0.03 -0.09,0.04l-0 0 0 0 -0.04 0.02 -0 0 0 0c-0.02,0.01 -0.04,0.02 -0.06,0.02l-0 0 0 0c-0.01,0.01 -0.03,0.01 -0.04,0.01l-0 0 0 0 -0.02 0.01 -0 0 0 0 -0.04 0.01 -0 0 0 0 -0.02 0.01 -0.01 0 0 0 -0.01 0.01 -0 0 0 0 -0.02 0.01 -0 0 0 0 -0.02 0.01 -0.01 0 0 0 -0.01 0 -0 0 0 0c-0.01,0 -0.01,0 -0.02,0.01l-0.01 0 0 0 -0.01 0.01 -0.01 0 0 0 -0.01 0 -0 0 0 0 -0.02 0.01 -0.01 0 0 0 -0.02 0.01 -0.01 0 0 0 -0.01 0.01 -0 0 0 0 -0.02 0.01 -0 0 0 0 -0.02 0.01 -0.01 0 0 0 -0.04 0.01 -0 0 0 0 -0.02 0.01 -0 0 0 0c-0.02,0.01 -0.04,0.02 -0.06,0.02l-0 0 0 0c-0.07,0.02 -0.14,0.05 -0.21,0.07l-0 0 0 0 -0.02 0.01 -0 0 0 0 -0.02 0.01 -0 0 0 0 -0.02 0.01 -0 0 0 0 -0.02 0.01 -0 0 0 0c-0.01,0 -0.01,0 -0.02,0.01l-0 0 0 0c-0.01,0 -0.01,0 -0.02,0.01l-0 0 0 0c-0.01,0 -0.01,0 -0.02,0.01l-0.01 0 0 0 -0.01 0 -0.01 0 0 0 -0.01 0 -0.01 0 0 0 -0.02 0.01 -0.01 0 0 0 -0.02 0.01 -0.01 0 0 0 -0.02 0.01 -0.01 0 0 0 -0.02 0.01 -0 0 0 0 -0.02 0.01 -0 0 0 0 -0.02 0.01 -0 0 0 0 -0.02 0.01 -0 0 0 0c-0.04,0.01 -0.08,0.03 -0.13,0.04l-0 0 0 0c-0.02,0.01 -0.04,0.01 -0.05,0.02l-0 0 0 0c-0.02,0.01 -0.03,0.01 -0.05,0.02l-0 0 0 0 -0.02 0.01 0 0 0 0 -0.03 0.01 -0 0 0 0 -0.02 0.01 -0 0 0 0 -0.03 0.01 -0.01 0 0 0c-0.01,0 -0.01,0 -0.02,0.01l-0 0 0 0c-0.01,0 -0.02,0 -0.02,0.01l-0.01 0 0 0c-0.01,0 -0.01,0 -0.02,0.01l-0.01 0 0 0c-0.01,0 -0.01,0 -0.02,0l-0.01 0 0 0c-0.01,0 -0.01,0 -0.02,0.01l-0.01 0 0 0 -0.02 0.01 -0.01 0 0 0 -0.02 0.01 -0.01 0 0 0 -0.02 0.01 -0 0 0 0 -0.03 0.01 -0 0 0 0c-0.02,0 -0.04,0.01 -0.05,0.01l-0 0 0 0c-0.06,0.02 -0.12,0.03 -0.18,0.05l-0 0 0 0c-0.01,0 -0.02,0 -0.03,0.01l-0 0 0 0 -0.03 0.01 -0 0 0 0 -0.03 0.01 -0 0 0 0 -0.03 0.01 -0 0 0 0 -0.03 0.01 -0.01 0 0 0c-0.01,0 -0.01,0 -0.02,0.01l-0.01 0 0 0c-0.01,0 -0.01,0 -0.02,0.01l-0.01 0 0 0c-0.01,0 -0.01,0 -0.02,0.01l-0.01 0 0 0c-0.01,0 -0.02,0 -0.02,0.01l-0.01 0 0 0c-0.01,0 -0.02,0 -0.03,0.01l-0.01 0 0 0 -0.02 0.01 -0.01 0 0 0 -0.03 0.01 -0.01 0 0 0 -0.03 0.01 -0 0 0 0c-0.02,0.01 -0.04,0.01 -0.07,0.02l-0 0 0 0c-0.01,0 -0.02,0 -0.03,0.01l-0 0 0 0c-0.04,0.01 -0.07,0.02 -0.11,0.02l-0 0 0 0c-0.01,0 -0.02,0 -0.04,0.01l-0 0 0 0c-0.01,0 -0.02,0 -0.04,0.01l-0 0 0 0 -0.03 0.01 -0.01 0 0 0 -0.03 0.01 -0.01 0 0 0c-0.01,0 -0.02,0 -0.03,0.01l-0.01 0 0 0c-0.01,0 -0.02,0 -0.03,0.01l-0.02 0 0 0c-0.01,0 -0.02,0 -0.02,0l-0.02 0 0 0c-0.01,0 -0.02,0 -0.02,0l-0.02 0 0 0c-0.01,0 -0.02,0 -0.03,0.01l-0.01 0 0 0c-0.01,0 -0.02,0 -0.03,0.01l-0.01 0 0 0c-0.01,0 -0.02,0 -0.03,0.01l-0 0 0 0 -0.04 0.01 -0 0 0 0c-0.01,0 -0.03,0.01 -0.04,0.01l-0.01 0 0 0c-0.01,0 -0.03,0 -0.04,0.01l-0 0 0 0c-0.05,0.01 -0.09,0.02 -0.14,0.02l-0.01 0 0 0c-0.01,0 -0.03,0 -0.04,0.01l-0 0 0 0 -0.05 0.01 -0.01 0 0 0 -0.04 0.01 -0.02 0 0 0c-0.01,0 -0.02,0 -0.03,0.01l-0.01 0 0 0c-0.01,0 -0.02,0 -0.03,0.01l-0.02 0 0 0c-0.01,0 -0.02,0 -0.03,0l-0.01 0 0 0c-0.01,0 -0.03,0 -0.04,0.01l-0.01 0 0 0c-0.01,0 -0.03,0 -0.04,0.01l-0.01 0 0 0 -0.04 0.01 -0 0 0 0c-0.02,0 -0.04,0.01 -0.05,0.01l-0 0 0 0c-0.02,0 -0.04,0.01 -0.05,0.01l-0 0 0 0c-0.02,0 -0.04,0.01 -0.06,0.01l-0 0 0 0c-0.02,0 -0.04,0 -0.07,0.01l-0.01 0 0 0c-0.02,0 -0.04,0 -0.06,0.01l-0.01 0 0 0c-0.02,0 -0.04,0 -0.06,0.01l-0.02 0 0 0c-0.02,0 -0.03,0 -0.04,0.01l-0.03 0 0 0c-0.02,0 -0.03,0 -0.05,0l-0.02 0 0 0c-0.02,0 -0.04,0 -0.06,0.01l-0.02 0 0 0c-0.02,0 -0.04,0 -0.06,0.01l-0.01 0 0 0c-0.02,0 -0.05,0 -0.07,0.01l-0 0 0 0c-0.03,0 -0.06,0.01 -0.09,0.01l-0 0 0 0c-0.03,0 -0.07,0.01 -0.1,0.01l-0.02 0 0 0c-0.03,0 -0.06,0 -0.09,0.01l-0.04 0 0 0c-0.02,0 -0.05,0 -0.07,0.01l-0.05 0 0 0c-0.03,0 -0.06,0 -0.09,0l-0.04 0 0 0c-0.04,0 -0.07,0 -0.11,0.01l-0.01 0 0 0c-0.06,0 -0.12,0.01 -0.19,0.01l-0.06 0 0 0c-0.07,0 -0.14,0 -0.21,0.01l-0.16 0 0 0c-0.06,0 -0.11,0 -0.17,0l-11.49 0 0.57 -1.82z"/>
  </g>
 </g>
</svg>
